<?xml version="1.0" standalone="no"?>
<!DOCTYPE svg PUBLIC "-//W3C//DTD SVG 20010904//EN"
 "http://www.w3.org/TR/2001/REC-SVG-20010904/DTD/svg10.dtd">
<svg version="1.0" xmlns="http://www.w3.org/2000/svg"
 width="700.000000pt" height="700.000000pt" viewBox="0 0 700.000000 700.000000"
 preserveAspectRatio="xMidYMid meet">
<metadata>
Created by potrace 1.14, written by Peter Selinger 2001-2017
</metadata>
<g transform="translate(0.000000,700.000000) scale(0.100000,-0.100000)"
fill="#000000" stroke="none">
<path d="M955 5564 c-20 -22 -23 -34 -20 -82 8 -132 103 -309 241 -448 62 -63
67 -71 41 -63 -72 21 -270 123 -442 229 -84 51 -121 57 -161 25 -26 -21 -29
-29 -28 -82 1 -128 71 -253 251 -450 129 -142 129 -142 29 -89 -176 94 -326
126 -377 80 -55 -50 14 -211 170 -391 60 -70 69 -84 54 -82 -45 7 -93 -35 -93
-81 0 -73 83 -175 233 -288 83 -63 91 -72 133 -157 25 -49 60 -105 77 -124 85
-90 220 -145 407 -167 44 -5 241 -5 295 0 111 11 257 36 361 62 28 7 28 7 -10
-32 -46 -48 -99 -140 -130 -228 -12 -36 -25 -68 -27 -70 -2 -2 -47 5 -99 15
-109 22 -489 85 -569 94 -30 4 -62 8 -72 10 -10 2 -46 6 -81 10 -35 3 -79 7
-98 10 -40 4 -172 16 -245 21 -84 6 -376 5 -447 -1 -77 -6 -202 -37 -252 -60
-76 -36 -116 -113 -78 -148 41 -37 176 -51 317 -33 l50 6 -34 -15 c-18 -8 -37
-15 -42 -15 -5 0 -34 -12 -65 -27 -181 -85 -49 -181 275 -199 58 -3 107 -7
109 -8 1 -2 -5 -17 -13 -33 -66 -132 233 -183 810 -138 292 23 689 25 711 4
11 -12 -16 -29 -169 -107 -100 -51 -256 -131 -347 -178 -650 -335 -588 -307
-644 -300 -147 18 -170 18 -203 -3 -46 -29 -54 -68 -19 -97 14 -13 45 -28 69
-34 73 -19 73 -19 36 -44 -19 -12 -50 -29 -69 -36 -59 -23 -99 -54 -110 -83
-8 -25 -6 -32 19 -57 36 -36 119 -61 219 -64 97 -4 175 20 215 65 27 30 28 35
24 108 -3 55 0 83 10 101 14 23 93 74 258 163 38 21 84 47 100 57 17 9 84 46
150 80 66 35 134 71 150 80 34 20 210 112 361 189 l100 51 85 -39 c46 -21 99
-42 117 -46 33 -7 33 -7 13 -21 -19 -13 -223 -135 -426 -254 -44 -26 -181
-106 -305 -179 l-225 -133 -96 7 c-108 7 -158 -6 -180 -47 -20 -35 -19 -45 5
-67 23 -22 43 -29 104 -38 18 -3 35 -9 37 -14 3 -4 -31 -29 -75 -55 -96 -56
-134 -98 -118 -128 17 -31 37 -44 97 -62 97 -29 248 -16 318 27 57 36 74 93
54 180 -10 43 7 92 37 108 11 6 26 17 34 24 37 36 531 338 828 507 l165 94
120 2 c106 2 232 14 305 29 444 88 810 313 965 590 37 66 72 176 78 243 2 23
6 44 8 46 4 4 47 12 124 21 178 22 252 51 331 129 91 92 154 268 180 501 3 33
8 62 9 65 2 3 6 34 10 70 4 36 8 67 10 70 2 3 6 25 10 48 12 85 45 194 77 260
30 62 35 67 63 65 55 -3 309 -2 345 1 19 2 58 7 85 11 28 3 64 8 80 10 17 2
50 6 75 9 25 4 63 9 85 11 22 3 95 8 163 12 l123 6 -13 -29 c-6 -16 -15 -33
-19 -39 -23 -34 -77 -242 -80 -312 -2 -36 -6 -43 -23 -44 -252 -6 -458 -152
-546 -386 -89 -237 -41 -535 118 -731 96 -118 284 -213 472 -239 70 -10 228
-10 300 0 315 42 600 247 740 531 65 132 66 269 2 390 -49 90 -143 144 -267
151 -33 2 -65 4 -71 4 -6 1 -28 33 -48 71 -21 39 -41 70 -45 70 -7 0 -74 195
-101 295 -4 17 -27 90 -50 163 -24 73 -41 135 -38 137 6 7 101 23 165 29 114
11 196 32 190 49 -2 6 -30 25 -63 43 -75 41 -193 73 -374 100 -118 18 -331 32
-525 35 l-130 2 -90 86 c-195 187 -470 360 -572 361 -24 0 -33 -5 -33 -16 0
-17 50 -70 114 -120 l40 -31 -66 -22 c-79 -26 -172 -81 -211 -124 -16 -18 -41
-57 -56 -87 -26 -54 -26 -58 -27 -295 -2 -302 -5 -329 -51 -467 -31 -90 -87
-167 -171 -233 -238 -187 -644 -262 -920 -169 -70 23 -184 83 -197 103 -2 5
-23 93 -46 197 -40 186 -52 221 -112 339 -113 223 -357 488 -531 577 -51 26
-100 21 -266 -27 -168 -49 -240 -55 -322 -25 -98 36 -279 112 -317 133 -19 10
-58 31 -85 45 -120 62 -223 138 -339 251 -67 66 -132 128 -145 139 -54 47
-130 92 -171 101 -40 9 -45 7 -66 -15z"/>
</g>
</svg>
