<svg width="323" height="214" viewBox="0 0 323 214" fill="none" xmlns="http://www.w3.org/2000/svg">
<path d="M274.359 99.2321C265.795 88.9551 255.15 80.6125 243.126 74.7545C231.101 68.8966 217.972 65.6565 204.602 65.2481C203.638 65.1577 202.668 65.3316 201.795 65.7511C201.095 66.0567 200.31 66.106 199.578 65.8902C198.846 65.6744 198.213 65.2073 197.791 64.5711C197.538 64.0374 197.175 63.5635 196.725 63.1807C196.275 62.798 195.75 62.5151 195.182 62.3508C173.388 48.991 147.182 44.8341 122.321 50.7933C97.4782 57.9842 76.5133 77.4445 60.3227 108.592C59.7782 109.668 59.5756 110.885 59.742 112.08C59.9083 113.275 60.4357 114.39 61.2535 115.276C62.104 116.162 63.2234 116.741 64.4375 116.924C65.6516 117.107 66.8921 116.883 67.966 116.287C85.6371 108.496 104.607 104.079 123.899 103.263C118.959 110.898 115.882 119.589 114.917 128.632C113.952 137.676 115.127 146.819 118.345 155.323C118.664 156.193 119.18 156.978 119.851 157.616C120.522 158.254 121.331 158.729 122.216 159.004L122.883 159.201C123.902 159.375 124.95 159.269 125.913 158.892C126.876 158.515 127.718 157.882 128.348 157.062C141.708 140.44 164.331 116.994 175.234 114.039C185.079 119.785 193.323 127.913 199.209 137.678C205.096 147.443 208.436 158.531 208.923 169.926C208.871 171.301 209.3 172.651 210.136 173.743C210.972 174.836 212.162 175.602 213.502 175.911C214.842 176.22 216.248 176.052 217.478 175.436C218.708 174.82 219.685 173.794 220.241 172.536C228.536 155.822 230.699 136.726 226.352 118.583C250.814 132.718 270.394 153.97 282.486 179.513C282.971 180.666 283.837 181.617 284.94 182.206C286.043 182.795 287.315 182.987 288.542 182.749C289.774 182.578 290.918 182.016 291.805 181.146C292.693 180.275 293.278 179.142 293.473 177.914C297.004 150.223 290.198 122.206 274.359 99.2321Z" fill="#00C853"/>
<path d="M284.461 181.425C283.593 181.003 282.905 180.286 282.519 179.402C270.44 153.601 250.737 132.132 226.071 117.896C230.419 136.039 228.255 155.135 219.96 171.848C219.404 173.107 218.427 174.133 217.197 174.749C215.967 175.365 214.561 175.533 213.221 175.224C211.881 174.915 210.691 174.148 209.855 173.056C209.019 171.963 208.59 170.613 208.642 169.238C207.982 157.973 204.534 147.049 198.608 137.449C192.681 127.85 184.463 119.875 174.691 114.242C163.788 117.196 141.165 140.643 127.805 157.265C127.175 158.085 126.333 158.718 125.37 159.095C124.407 159.471 123.359 159.578 122.34 159.403L121.673 159.207C120.788 158.932 119.979 158.457 119.308 157.819C118.636 157.18 118.121 156.396 117.802 155.526C114.57 147.004 113.391 137.839 114.362 128.774C115.332 119.709 118.425 111.001 123.388 103.354C104.276 104.204 85.4845 108.589 67.966 116.287C67.3241 116.523 66.6373 116.61 65.9571 116.541C51.0907 132.442 40.5363 151.883 35.2979 173.014C30.0594 194.145 30.3112 216.263 36.0291 237.266C41.7471 258.268 52.7411 277.456 67.9654 293.005C83.1897 308.553 102.138 319.944 123.008 326.095C143.878 332.247 165.976 332.953 187.199 328.147C208.423 323.341 228.066 313.183 244.261 298.638C260.455 284.094 272.663 265.648 279.722 245.054C286.782 224.459 288.458 202.402 284.592 180.98L284.461 181.425Z" fill="#D50000"/>
<path d="M202.629 35.036C201.154 34.6014 199.567 34.7707 198.216 35.5068C196.866 36.2429 195.863 37.4853 195.428 38.9609L187.426 66.1119C187.187 66.9209 187.13 67.773 187.261 68.6064C187.392 69.4399 187.706 70.2337 188.182 70.9303C190.124 73.8108 192.996 75.9376 196.317 76.9562L208.189 36.6749L202.629 35.036Z" fill="#5B4036"/>
<path d="M213.749 38.3136L208.189 36.6748L196.317 76.9561C199.61 77.912 203.14 77.6173 206.23 76.1287C207.024 75.8432 207.744 75.3843 208.339 74.7856C208.933 74.1868 209.387 73.4632 209.668 72.6671L217.67 45.5162C218.105 44.0406 217.936 42.4528 217.201 41.102C216.466 39.7513 215.224 38.7483 213.749 38.3136Z" fill="#795548"/>
</svg>
