<svg width="173" height="82" viewBox="0 0 173 82" fill="none" xmlns="http://www.w3.org/2000/svg">
<path d="M103.657 52H98.7138L106.246 30.1818H112.19L119.712 52H114.768L109.303 35.1676H109.133L103.657 52ZM103.348 43.424H115.024V47.0249H103.348V43.424ZM126.588 46.0128L132.48 35.6364H136.954V52H132.629V41.5916L126.759 52H122.252V35.6364H126.588V46.0128ZM147.986 52.3196C146.31 52.3196 144.868 51.9645 143.661 51.2543C142.46 50.5369 141.537 49.5426 140.891 48.2713C140.251 47 139.932 45.5369 139.932 43.8821C139.932 42.206 140.255 40.7358 140.901 39.4716C141.555 38.2003 142.482 37.2095 143.682 36.4993C144.882 35.782 146.31 35.4233 147.964 35.4233C149.392 35.4233 150.642 35.6825 151.714 36.201C152.787 36.7195 153.636 37.4474 154.261 38.3849C154.886 39.3224 155.23 40.4233 155.294 41.6875H151.011C150.891 40.8707 150.571 40.2138 150.053 39.7166C149.541 39.2124 148.87 38.9602 148.039 38.9602C147.336 38.9602 146.722 39.152 146.196 39.5355C145.678 39.9119 145.273 40.4624 144.982 41.1868C144.69 41.9112 144.545 42.7884 144.545 43.8182C144.545 44.8622 144.687 45.75 144.971 46.4815C145.262 47.2131 145.67 47.7706 146.196 48.1541C146.722 48.5376 147.336 48.7294 148.039 48.7294C148.558 48.7294 149.023 48.6229 149.435 48.4098C149.854 48.1967 150.198 47.8878 150.468 47.483C150.745 47.071 150.926 46.5774 151.011 46.0021H155.294C155.223 47.2521 154.882 48.353 154.271 49.3047C153.668 50.2493 152.833 50.9879 151.768 51.5206C150.702 52.0533 149.442 52.3196 147.986 52.3196ZM157.084 39.2053V35.6364H171.913V39.2053H166.64V52H162.315V39.2053H157.084Z" fill="#55A630"/>
<g clip-path="url(#clip0_287_6745)">
<path d="M77.5266 36.7403C77.1245 36.6675 76.713 35.0497 76.3014 34.9705C75.5574 33.147 74.8166 29.8608 74.0694 28.0435C75.6492 27.5813 77.2227 27.8219 78.4194 27.2616C78.4194 27.2616 77.6089 25.0581 65.4772 25.0328C63.9005 23.0699 58.7275 19.2518 57.3915 19.8407C57.3471 19.9135 57.0622 20.1605 59.1137 21.6801V21.7909C52.0917 23.7696 56.5968 28.3 54.2066 33.9511C52.4811 38.032 43.395 40.4475 39.254 36.8542C38.9564 35.4708 38.6557 34.0999 38.3612 32.7196C37.823 31.0955 36.8669 29.4239 35.9045 28.148C34.7743 26.6379 32.6373 24.5041 30.8865 23.6841C29.2593 23.4688 26.7835 24.9631 25.1499 24.7383C22.3734 23.8741 19.8027 22.652 17.5644 21.1672C16.0005 20.1351 13.4013 16.5798 11.6474 16.5925C9.89977 16.6051 11.3782 21.3255 14.7721 23.9564C12.7459 23.3548 10.0644 21.7149 8.42763 20.6923C8.08888 20.477 7.65515 20.4739 7.31323 20.6828C6.96815 20.8918 6.7687 21.2749 6.80036 21.6769C7.03147 24.7162 9.7763 26.7645 11.2105 28.6419C10.1625 28.053 7.03147 26.22 5.73978 27.0843C5.73978 27.0843 4.22331 27.9232 8.5321 32.6658C8.0129 32.403 4.91031 33.4921 10.7609 37.5697C11.2105 37.9022 11.3466 38.4562 12.0304 39.8017C15.3641 44.3954 25.6565 41.3182 25.6565 41.3182C24.292 41.6981 23.3517 44.0883 22.9844 45.4497C18.1121 44.3764 0.569862 41.4163 0 45.551C0 45.6618 0 46.9661 4.91031 46.2158C4.91031 46.2633 1.78873 46.9155 1.88055 47.8779C2.18447 49.1886 5.47068 49.2646 7.47153 49.3406C7.47153 49.3786 5.06228 51.5124 12.1539 51.5789C17.0262 51.5124 20.2966 50.8349 24.9821 51.2464C24.9885 51.2528 25.1088 51.3604 25.2069 51.4522L12.1254 58.1924C10.9414 58.4235 9.59268 57.3028 8.62708 58.6135C8.09204 59.6836 10.4443 59.864 10.4348 59.9748C9.74148 60.7315 8.52261 60.6618 7.97174 61.5958C7.20559 62.9065 12.2584 63.9195 13.4044 62.191C13.987 61.333 13.1607 60.5415 13.6862 59.7595C14.0123 59.2815 22.2278 54.8936 26.8152 52.5698C27.5433 52.994 28.4235 53.4277 29.56 53.7127L18.2198 60.4022C17.0547 60.7188 15.6301 59.6931 14.7563 61.0671C14.2972 62.172 16.6558 62.1878 16.6558 62.3018C16.0163 63.1059 14.7943 63.1186 14.313 64.0873C13.6419 65.4518 18.7548 66.1103 19.7774 64.2963C20.2966 63.4003 19.4196 62.6722 19.8914 61.8554C20.3694 61.0259 31.3678 54.5833 32.46 54.1464C40.2006 54.6403 49.464 49.8756 49.4989 43.5343C50.971 43.1607 52.3418 43.2715 53.5196 42.7492C58.1386 40.7103 56.1473 33.0457 58.7971 29.0408C63.0553 29.6708 66.3066 28.3095 70.2925 28.4868C70.2925 28.4868 69.0293 30.8105 68.947 33.4034C62.7323 33.3338 60.0666 40.0391 62.9223 45.342C64.939 49.0873 70.3717 50.3758 75.1997 48.6789C78.9259 47.3714 81.1737 44.101 81.8449 42.1223C82.4021 39.6624 81.5505 36.4174 77.5266 36.7403Z" fill="#55A630"/>
</g>
<defs>
<clipPath id="clip0_287_6745">
<rect width="82" height="82" fill="white"/>
</clipPath>
</defs>
</svg>
