<svg width="220" height="104" viewBox="0 0 220 104" fill="none" xmlns="http://www.w3.org/2000/svg">
<path d="M131.282 66H125.022L134.561 38.3671H142.09L151.616 66H145.355L138.433 44.6817H138.217L131.282 66ZM130.891 55.1384H145.679V59.6989H130.891V55.1384ZM160.325 58.4171L167.787 45.2753H173.453V66H167.975V52.8177L160.541 66H154.834V45.2753H160.325V58.4171ZM187.425 66.4048C185.302 66.4048 183.476 65.955 181.947 65.0555C180.427 64.147 179.258 62.8877 178.439 61.2776C177.629 59.6675 177.225 57.8145 177.225 55.7186C177.225 53.5958 177.634 51.7338 178.452 50.1327C179.28 48.5226 180.454 47.2677 181.974 46.3682C183.494 45.4597 185.302 45.0055 187.398 45.0055C189.206 45.0055 190.789 45.3338 192.147 45.9904C193.506 46.6471 194.581 47.5691 195.372 48.7564C196.164 49.9438 196.6 51.338 196.681 52.9391H191.257C191.104 51.9047 190.699 51.0727 190.043 50.443C189.395 49.8044 188.545 49.485 187.493 49.485C186.602 49.485 185.824 49.7279 185.158 50.2136C184.502 50.6904 183.989 51.3875 183.62 52.305C183.251 53.2225 183.067 54.3334 183.067 55.6377C183.067 56.9599 183.247 58.0843 183.607 59.0108C183.975 59.9373 184.493 60.6434 185.158 61.1292C185.824 61.6149 186.602 61.8578 187.493 61.8578C188.149 61.8578 188.738 61.7228 189.26 61.453C189.791 61.1831 190.227 60.7918 190.569 60.2791C190.92 59.7574 191.149 59.1323 191.257 58.4037H196.681C196.591 59.9868 196.159 61.381 195.386 62.5864C194.621 63.7827 193.564 64.7182 192.215 65.3928C190.866 66.0675 189.269 66.4048 187.425 66.4048ZM198.948 49.7954V45.2753H217.729V49.7954H211.051V66H205.573V49.7954H198.948Z" fill="white"/>
<g clip-path="url(#clip0_182_4817)">
<path d="M98.188 46.532C97.6787 46.4398 97.1575 44.3909 96.6362 44.2906C95.694 41.9811 94.7557 37.8191 93.8094 35.5175C95.8102 34.9321 97.803 35.2369 99.3187 34.5272C99.3187 34.5272 98.2922 31.7365 82.9273 31.7044C80.9305 29.2184 74.3787 24.3828 72.6867 25.1286C72.6305 25.2208 72.2697 25.5336 74.8679 27.4582V27.5985C65.9746 30.1045 71.6803 35.8423 68.653 42.9995C66.4677 48.1679 54.9601 51.2273 49.7155 46.6764C49.3386 44.9242 48.9577 43.188 48.5848 41.4398C47.9031 39.3828 46.6922 37.2657 45.4733 35.6499C44.0418 33.7373 41.3353 31.0348 39.118 29.9963C37.0571 29.7236 33.9215 31.6162 31.8525 31.3315C28.3361 30.2369 25.0803 28.6891 22.2455 26.8086C20.2647 25.5015 16.9728 20.9987 14.7515 21.0147C12.5381 21.0307 14.4106 27.0091 18.709 30.3411C16.1428 29.5793 12.7466 27.5023 10.6737 26.2072C10.2446 25.9345 9.6953 25.9305 9.26226 26.1951C8.82521 26.4598 8.5726 26.9449 8.6127 27.4542C8.9054 31.3034 12.3818 33.8977 14.1981 36.2754C12.8709 35.5296 8.9054 33.208 7.26947 34.3026C7.26947 34.3026 5.34885 35.3652 10.806 41.3716C10.1484 41.0388 6.21895 42.4181 13.6288 47.5825C14.1981 48.0036 14.3705 48.7052 15.2366 50.4093C19.4588 56.2273 32.4941 52.3299 32.4941 52.3299C30.7659 52.8111 29.5751 55.8384 29.11 57.5625C22.9391 56.2033 0.721735 52.4542 0 57.6908C0 57.8312 0 59.4831 6.21895 58.5329C6.21895 58.593 2.26544 59.419 2.38172 60.6379C2.76665 62.2979 6.92865 62.3941 9.46274 62.4904C9.46274 62.5385 6.41141 65.241 15.393 65.3252C21.5638 65.241 25.7058 64.3829 31.64 64.9042C31.6481 64.9122 31.8004 65.0485 31.9247 65.1648L15.3569 73.7013C13.8573 73.994 12.1492 72.5746 10.9263 74.2346C10.2486 75.5899 13.2278 75.8184 13.2158 75.9587C12.3376 76.917 10.7939 76.8288 10.0963 78.0117C9.12593 79.6717 15.5253 80.9547 16.9768 78.7655C17.7146 77.6789 16.6681 76.6765 17.3337 75.6861C17.7466 75.0806 28.1517 69.5233 33.9616 66.5802C34.8838 67.1175 35.9985 67.6668 37.438 68.0277L23.0755 76.5C21.5999 76.901 19.7956 75.6019 18.6889 77.3421C18.1075 78.7414 21.0947 78.7615 21.0947 78.9058C20.2847 79.9243 18.737 79.9403 18.1276 81.1673C17.2775 82.8954 23.7531 83.7294 25.0482 81.4319C25.7058 80.2972 24.5951 79.3749 25.1925 78.3405C25.798 77.2899 39.7275 69.1303 41.1108 68.577C50.9144 69.2025 62.6466 63.168 62.6907 55.1367C64.5551 54.6636 66.2913 54.8039 67.7829 54.1423C73.633 51.5601 71.1109 41.8528 74.467 36.7806C79.8599 37.5785 83.9778 35.8544 89.0259 36.0789C89.0259 36.0789 87.4261 39.022 87.3219 42.3059C79.4509 42.2176 76.0748 50.7101 79.6915 57.4262C82.2457 62.1696 89.1262 63.8015 95.2409 61.6524C99.9602 59.9964 102.807 55.8544 103.657 53.3484C104.363 50.2329 103.284 46.123 98.188 46.532Z" fill="white"/>
</g>
<defs>
<clipPath id="clip0_182_4817">
<rect width="103.854" height="103.854" fill="white"/>
</clipPath>
</defs>
</svg>
