<svg width="138" height="138" viewBox="0 0 138 138" fill="none" xmlns="http://www.w3.org/2000/svg">
<g clip-path="url(#clip0_149_1026)">
<path d="M130.472 61.8311C129.795 61.7086 129.102 58.986 128.41 58.8528C127.158 55.7839 125.911 50.2534 124.653 47.1952C127.312 46.4173 129.96 46.8222 131.974 45.8792C131.974 45.8792 130.61 42.1709 110.193 42.1283C107.54 38.8249 98.834 32.3994 96.5856 33.3904C96.511 33.5129 96.0315 33.9285 99.484 36.4859V36.6724C87.6666 40.0024 95.2483 47.6268 91.2257 57.1372C88.3219 64.005 73.0306 68.0702 66.0616 62.023C65.5608 59.6946 65.0546 57.3876 64.5591 55.0646C63.6534 52.3314 62.0443 49.5182 60.4246 47.371C58.5225 44.8296 54.9261 41.2385 51.9798 39.8586C49.2412 39.4963 45.0747 42.0111 42.3255 41.6328C37.6528 40.1782 33.3265 38.1216 29.5596 35.6228C26.9276 33.8859 22.5533 27.9026 19.6016 27.9239C16.6606 27.9452 19.1488 35.8892 24.8604 40.3168C21.4504 39.3044 16.9376 36.5446 14.1831 34.8236C13.613 34.4613 12.8831 34.456 12.3076 34.8076C11.7269 35.1593 11.3912 35.804 11.4445 36.4806C11.8334 41.5955 16.4528 45.0427 18.8664 48.2022C17.1028 47.2112 11.8334 44.1263 9.65963 45.5808C9.65963 45.5808 7.10753 46.9927 14.3589 54.974C13.4851 54.5318 8.2637 56.3646 18.1098 63.2271C18.8664 63.7865 19.0955 64.7189 20.2463 66.9833C25.8567 74.7142 43.178 69.5354 43.178 69.5354C40.8816 70.1748 39.2992 74.1974 38.6811 76.4884C30.4814 74.6822 0.959036 69.7006 0 76.6589C0 76.8454 0 79.0405 8.2637 77.7778C8.2637 77.8577 3.01031 78.9553 3.16482 80.575C3.67631 82.7808 9.20675 82.9086 12.574 83.0365C12.574 83.1004 8.51944 86.6915 20.4541 86.8034C28.6539 86.6915 34.1577 85.5513 42.0431 86.244C42.0537 86.2546 42.2562 86.4358 42.4214 86.5903L20.4062 97.9335C18.4135 98.3225 16.1438 96.4364 14.5187 98.6422C13.6183 100.443 17.577 100.747 17.561 100.933C16.3942 102.207 14.3429 102.089 13.4159 103.661C12.1265 105.867 20.6299 107.572 22.5587 104.663C23.539 103.219 22.1484 101.887 23.0329 100.571C23.5816 99.7664 37.4077 92.3818 45.128 88.471C46.3534 89.185 47.8346 89.9149 49.7473 90.3944L30.6625 101.652C28.7018 102.185 26.3042 100.459 24.8337 102.771C24.0612 104.631 28.0305 104.657 28.0305 104.849C26.9543 106.203 24.8976 106.224 24.0878 107.854C22.9583 110.151 31.563 111.259 33.2839 108.206C34.1577 106.698 32.6818 105.473 33.4757 104.098C34.2802 102.702 52.7896 91.8596 54.6278 91.1244C67.6547 91.9556 83.2444 83.9369 83.303 73.265C85.7805 72.6363 88.0875 72.8228 90.0695 71.9437C97.843 68.5124 94.4917 55.6134 98.9512 48.8735C106.117 49.9338 111.589 47.6427 118.297 47.9411C118.297 47.9411 116.171 51.8518 116.033 56.2155C105.574 56.0982 101.088 67.3829 105.894 76.3073C109.288 82.6103 118.43 84.7788 126.556 81.923C132.827 79.7225 136.609 74.2187 137.739 70.8887C138.677 66.7489 137.243 61.2877 130.472 61.8311Z" fill="white"/>
</g>
<defs>
<clipPath id="clip0_149_1026">
<rect width="138" height="138" fill="white"/>
</clipPath>
</defs>
</svg>
