<svg width="465" height="466" viewBox="0 0 465 466" fill="none" xmlns="http://www.w3.org/2000/svg">
<path d="M295.298 233.668C250.621 233.243 210.192 232.859 180.886 232.58C166.267 232.511 154.432 232.454 146.214 232.415C142.142 232.424 138.974 232.431 136.787 232.436C135.731 232.45 134.917 232.461 134.335 232.469C133.783 232.482 133.5 232.498 133.5 232.514C133.5 232.531 133.783 232.549 134.335 232.567C134.918 232.581 135.731 232.6 136.787 232.625C138.974 232.652 142.142 232.692 146.213 232.743C154.431 232.786 166.266 232.85 180.885 232.928C210.192 232.947 250.623 232.972 295.301 233C339.957 232.995 380.395 233.054 409.67 233.267C424.307 233.372 436.153 233.509 444.34 233.665C448.432 233.744 451.611 233.825 453.766 233.908C455.921 233.991 457.053 234.074 457.053 234.154C457.052 234.233 455.92 234.306 453.764 234.366C451.608 234.427 448.43 234.477 444.336 234.513C436.147 234.586 424.301 234.604 409.664 234.56C380.388 234.476 339.952 234.125 295.298 233.668Z" fill="#EBEBEB"/>
<path d="M294.407 243.631C250.341 236.347 210.463 229.755 181.559 224.976C167.128 222.663 155.446 220.791 147.333 219.491C143.31 218.876 140.179 218.397 138.016 218.067C136.971 217.92 136.166 217.807 135.589 217.725C135.041 217.655 134.76 217.627 134.756 217.643C134.753 217.66 135.029 217.723 135.572 217.826C136.146 217.93 136.946 218.074 137.984 218.261C140.141 218.625 143.264 219.151 147.277 219.828C155.389 221.135 167.07 223.015 181.499 225.339C210.447 229.855 250.384 236.087 294.516 242.972C338.63 249.821 378.569 256.085 407.455 260.791C421.898 263.142 433.579 265.098 441.641 266.511C445.673 267.217 448.799 267.788 450.914 268.202C453.03 268.615 454.134 268.873 454.121 268.953C454.108 269.033 452.978 268.931 450.839 268.661C448.7 268.392 445.551 267.954 441.501 267.361C433.4 266.177 421.694 264.376 407.242 262.085C378.335 257.508 338.445 250.946 294.407 243.631Z" fill="#EBEBEB"/>
<path d="M291.949 253.333C249.594 239.28 211.266 226.562 183.483 217.343C169.601 212.814 158.363 209.146 150.558 206.599C146.683 205.366 143.667 204.407 141.584 203.744C140.574 203.437 139.798 203.199 139.241 203.03C138.711 202.874 138.437 202.803 138.432 202.82C138.426 202.837 138.689 202.941 139.208 203.128C139.758 203.32 140.525 203.587 141.521 203.934C143.593 204.63 146.592 205.635 150.448 206.929C158.251 209.482 169.485 213.158 183.365 217.698C211.232 226.662 249.678 239.03 292.163 252.696C334.637 266.322 373.079 278.722 400.854 287.866C414.742 292.435 425.965 296.186 433.701 298.837C437.569 300.163 440.565 301.213 442.589 301.952C444.612 302.691 445.662 303.118 445.636 303.195C445.61 303.273 444.51 302.998 442.439 302.398C440.37 301.8 437.33 300.877 433.425 299.663C425.614 297.234 414.341 293.635 400.434 289.122C372.617 280.103 334.27 267.414 291.949 253.333Z" fill="#EBEBEB"/>
<path d="M287.977 262.522C248.386 242.06 212.558 223.542 186.589 210.12C173.6 203.487 163.086 198.118 155.785 194.39C152.155 192.569 149.328 191.152 147.379 190.174C146.431 189.713 145.702 189.357 145.18 189.102C144.681 188.867 144.423 188.753 144.414 188.768C144.406 188.784 144.65 188.927 145.132 189.193C145.644 189.467 146.36 189.85 147.288 190.348C149.222 191.355 152.025 192.816 155.627 194.692C162.925 198.425 173.436 203.802 186.42 210.444C212.512 223.632 248.508 241.828 288.285 261.934C328.059 281.999 364.048 300.225 390.021 313.574C403.008 320.246 413.495 325.694 420.714 329.513C424.323 331.423 427.116 332.925 428.996 333.968C430.877 335.011 431.846 335.594 431.808 335.666C431.771 335.738 430.73 335.293 428.781 334.379C426.833 333.465 423.979 332.081 420.316 330.273C412.99 326.658 402.431 321.349 389.415 314.73C363.382 301.497 327.532 283.004 287.977 262.522Z" fill="#EBEBEB"/>
<path d="M282.594 270.985C246.726 244.658 214.268 220.833 190.74 203.564C178.961 195.007 169.425 188.079 162.804 183.268C159.506 180.908 156.939 179.073 155.167 177.805C154.305 177.203 153.64 176.739 153.164 176.407C152.71 176.096 152.472 175.944 152.461 175.958C152.451 175.972 152.669 176.151 153.104 176.489C153.567 176.839 154.212 177.328 155.05 177.962C156.803 179.257 159.34 181.132 162.601 183.541C169.22 188.357 178.75 195.291 190.523 203.857C214.21 220.913 246.886 244.445 282.994 270.448C319.105 296.411 351.769 319.973 375.311 337.17C387.084 345.767 396.579 352.767 403.105 357.656C406.368 360.099 408.888 362.014 410.581 363.336C412.274 364.657 413.138 365.383 413.09 365.448C413.042 365.513 412.083 364.913 410.303 363.71C408.524 362.506 405.923 360.699 402.59 358.347C395.926 353.645 386.337 346.771 374.529 338.222C350.907 321.129 318.424 297.326 282.594 270.985Z" fill="#EBEBEB"/>
<path d="M275.946 278.513C244.657 246.994 216.343 218.47 195.819 197.794C185.531 187.53 177.2 179.22 171.417 173.45C168.53 170.612 166.284 168.405 164.733 166.88C163.976 166.152 163.393 165.592 162.974 165.191C162.574 164.814 162.362 164.628 162.35 164.64C162.337 164.652 162.525 164.863 162.902 165.263C163.303 165.68 163.865 166.262 164.593 167.017C166.12 168.565 168.332 170.807 171.174 173.688C176.954 179.462 185.278 187.777 195.56 198.048C216.273 218.538 244.848 246.806 276.425 278.044C308.011 309.242 336.567 337.538 357.116 358.145C367.394 368.446 375.672 376.821 381.349 382.653C384.187 385.568 386.376 387.848 387.84 389.413C389.305 390.977 390.044 391.827 389.986 391.884C389.929 391.941 389.076 391.201 387.507 389.738C385.939 388.275 383.654 386.089 380.733 383.255C374.89 377.585 366.499 369.32 356.18 359.061C335.538 338.547 307.194 310.041 275.946 278.513Z" fill="#EBEBEB"/>
<path d="M268.196 284.928C242.249 248.982 218.768 216.453 201.749 192.875C193.201 181.154 186.281 171.665 181.475 165.077C179.07 161.83 177.199 159.304 175.907 157.559C175.273 156.724 174.785 156.081 174.435 155.621C174.1 155.187 173.92 154.97 173.905 154.98C173.891 154.991 174.042 155.227 174.352 155.68C174.683 156.154 175.145 156.815 175.746 157.674C177.01 159.438 178.843 161.993 181.196 165.275C185.997 171.867 192.911 181.361 201.451 193.087C218.687 216.512 242.466 248.828 268.742 284.539C295.033 320.213 318.79 352.554 335.846 376.068C344.376 387.824 351.236 397.37 355.926 404.003C358.271 407.32 360.074 409.907 361.274 411.679C362.474 413.45 363.071 414.403 363.005 414.451C362.939 414.499 362.213 413.636 360.894 411.95C359.575 410.264 357.662 407.755 355.222 404.505C350.342 398.007 343.354 388.553 334.775 376.832C317.613 353.392 294.101 320.875 268.196 284.928Z" fill="#EBEBEB"/>
<path d="M259.527 290.069C239.587 250.555 221.543 214.798 208.464 188.879C201.875 175.981 196.54 165.541 192.836 158.29C190.974 154.712 189.525 151.927 188.524 150.004C188.031 149.082 187.65 148.371 187.378 147.863C187.114 147.383 186.97 147.141 186.955 147.149C186.939 147.157 187.05 147.414 187.285 147.909C187.537 148.428 187.889 149.152 188.346 150.094C189.316 152.031 190.721 154.838 192.526 158.444C196.225 165.697 201.551 176.142 208.131 189.045C221.449 214.844 239.824 250.438 260.129 289.769C280.454 329.065 298.804 364.679 311.93 390.54C318.496 403.47 323.76 413.958 327.343 421.235C329.134 424.873 330.506 427.708 331.411 429.642C332.315 431.577 332.754 432.612 332.681 432.648C332.607 432.685 332.027 431.722 330.99 429.852C329.953 427.983 328.462 425.209 326.565 421.623C322.773 414.451 317.367 404.033 310.747 391.13C297.502 365.329 279.425 329.578 259.527 290.069Z" fill="#EBEBEB"/>
<path d="M250.149 293.803C236.749 251.681 224.622 213.563 215.833 185.933C211.378 172.172 207.773 161.031 205.269 153.295C204 149.472 203.012 146.497 202.329 144.443C201.988 143.455 201.726 142.694 201.537 142.149C201.353 141.635 201.251 141.373 201.233 141.379C201.216 141.384 201.285 141.655 201.438 142.181C201.604 142.733 201.836 143.503 202.138 144.503C202.787 146.568 203.727 149.558 204.935 153.4C207.433 161.138 211.03 172.281 215.473 186.046C224.519 213.595 237 251.601 250.791 293.6C264.609 335.567 277.06 373.59 285.906 401.171C290.332 414.96 293.86 426.136 296.239 433.879C297.428 437.751 298.331 440.764 298.916 442.815C299.502 444.867 299.77 445.957 299.691 445.981C299.613 446.005 299.193 444.964 298.465 442.958C297.739 440.951 296.707 437.979 295.405 434.143C292.801 426.471 289.121 415.342 284.637 401.571C275.668 374.031 263.509 335.915 250.149 293.803Z" fill="#EBEBEB"/>
<path d="M240.29 296.032C233.762 252.351 227.855 212.822 223.572 184.169C221.364 169.886 219.578 158.323 218.337 150.295C217.693 146.322 217.19 143.231 216.844 141.096C216.665 140.067 216.527 139.276 216.428 138.708C216.328 138.172 216.268 137.898 216.251 137.9C216.234 137.903 216.259 138.182 216.326 138.724C216.403 139.296 216.51 140.092 216.648 141.126C216.961 143.266 217.414 146.365 217.996 150.347C219.231 158.377 221.009 169.941 223.206 184.225C227.752 212.837 234.026 252.312 240.957 295.931C247.92 339.525 254.163 379.011 258.507 407.622C260.682 421.927 262.387 433.514 263.504 441.53C264.063 445.539 264.474 448.654 264.726 450.771C264.978 452.888 265.07 454.006 264.989 454.018C264.908 454.03 264.659 452.936 264.261 450.842C263.862 448.747 263.317 445.651 262.643 441.661C261.294 433.679 259.431 422.117 257.196 407.82C252.72 379.228 246.78 339.696 240.29 296.032Z" fill="#EBEBEB"/>
<path d="M230.197 296.709C230.599 252.556 230.964 212.6 231.228 183.637C231.289 169.189 231.339 157.493 231.374 149.371C231.362 145.348 231.352 142.216 231.346 140.055C231.331 139.011 231.319 138.208 231.311 137.632C231.297 137.086 231.282 136.806 231.265 136.806C231.248 136.806 231.23 137.086 231.211 137.631C231.197 138.207 231.178 139.01 231.154 140.053C231.128 142.215 231.09 145.346 231.042 149.37C231.003 157.492 230.945 169.188 230.875 183.635C230.874 212.599 230.873 252.557 230.872 296.711C230.905 340.844 230.871 380.809 230.673 409.74C230.576 424.206 230.445 435.914 230.291 444.005C230.215 448.05 230.134 451.191 230.051 453.321C229.969 455.45 229.886 456.569 229.805 456.569C229.724 456.569 229.65 455.449 229.588 453.319C229.525 451.188 229.473 448.047 229.434 444.001C229.355 435.909 229.33 424.2 229.366 409.735C229.432 380.805 229.762 340.841 230.197 296.709Z" fill="#EBEBEB"/>
<path d="M220.117 295.836C227.461 252.282 234.105 212.868 238.922 184.297C241.253 170.034 243.14 158.487 244.451 150.469C245.07 146.492 245.552 143.397 245.885 141.261C246.034 140.227 246.147 139.432 246.23 138.862C246.301 138.321 246.329 138.042 246.313 138.039C246.295 138.036 246.233 138.309 246.128 138.845C246.023 139.412 245.877 140.202 245.689 141.229C245.322 143.361 244.791 146.448 244.109 150.414C242.793 158.431 240.897 169.977 238.555 184.238C234.002 212.85 227.723 252.323 220.783 295.942C213.882 339.545 207.569 379.02 202.824 407.57C200.454 421.845 198.483 433.39 197.058 441.359C196.346 445.343 195.771 448.433 195.353 450.525C194.936 452.616 194.676 453.708 194.595 453.694C194.514 453.681 194.617 452.565 194.888 450.45C195.16 448.335 195.602 445.224 196.198 441.221C197.391 433.215 199.205 421.645 201.515 407.36C206.129 378.791 212.743 339.363 220.117 295.836Z" fill="#EBEBEB"/>
<path d="M210.296 293.412C224.49 251.545 237.335 213.657 246.645 186.194C251.219 172.472 254.922 161.362 257.495 153.648C258.74 149.818 259.708 146.836 260.377 144.777C260.688 143.78 260.927 143.012 261.099 142.461C261.256 141.938 261.327 141.667 261.311 141.662C261.294 141.656 261.188 141.916 260.999 142.43C260.806 142.973 260.535 143.732 260.185 144.716C259.483 146.764 258.467 149.729 257.161 153.54C254.583 161.252 250.87 172.359 246.286 186.077C237.232 213.624 224.743 251.627 210.942 293.623C197.181 335.608 184.658 373.609 175.423 401.064C170.809 414.793 167.021 425.886 164.342 433.533C163.004 437.357 161.943 440.319 161.197 442.319C160.451 444.319 160.02 445.357 159.941 445.331C159.863 445.305 160.141 444.218 160.744 442.172C161.349 440.126 162.28 437.122 163.506 433.261C165.959 425.541 169.594 414.398 174.151 400.651C183.261 373.152 196.077 335.247 210.296 293.412Z" fill="#EBEBEB"/>
<path d="M200.996 289.494C221.676 250.353 240.39 214.933 253.955 189.259C260.658 176.419 266.085 166.024 269.852 158.806C271.693 155.216 273.124 152.423 274.113 150.495C274.58 149.559 274.939 148.837 275.195 148.321C275.434 147.829 275.549 147.573 275.533 147.564C275.517 147.557 275.372 147.797 275.104 148.274C274.827 148.78 274.44 149.488 273.937 150.406C272.919 152.318 271.443 155.089 269.546 158.65C265.773 165.865 260.338 176.256 253.626 189.091C240.298 214.885 221.91 250.473 201.59 289.797C181.312 329.117 162.893 364.695 149.402 390.373C142.659 403.213 137.154 413.579 133.294 420.716C131.364 424.284 129.845 427.045 128.792 428.904C127.738 430.764 127.148 431.722 127.076 431.684C127.003 431.647 127.453 430.617 128.376 428.692C129.3 426.766 130.699 423.944 132.526 420.323C136.179 413.081 141.544 402.642 148.233 389.776C161.607 364.04 180.296 328.599 200.996 289.494Z" fill="#EBEBEB"/>
<path d="M192.43 284.181C219.047 248.716 243.134 216.623 260.593 193.361C269.245 181.715 276.249 172.286 281.113 165.739C283.498 162.478 285.354 159.941 286.636 158.189C287.244 157.337 287.713 156.679 288.049 156.209C288.363 155.76 288.516 155.524 288.502 155.514C288.488 155.503 288.307 155.719 287.967 156.148C287.612 156.606 287.118 157.244 286.478 158.073C285.168 159.805 283.274 162.314 280.837 165.538C275.969 172.082 268.958 181.505 260.298 193.146C243.054 216.564 219.264 248.873 192.975 284.576C166.727 320.28 142.906 352.576 125.52 375.853C116.829 387.493 109.751 396.882 104.809 403.334C102.338 406.56 100.401 409.053 99.0659 410.726C97.7305 412.4 96.9958 413.254 96.9307 413.207C96.8646 413.159 97.471 412.212 98.6884 410.451C99.9048 408.691 101.733 406.12 104.109 402.826C108.863 396.237 115.813 386.756 124.455 375.08C141.735 351.726 165.8 319.607 192.43 284.181Z" fill="#EBEBEB"/>
<path d="M184.809 277.615C216.683 246.673 245.527 218.672 266.434 198.376C276.814 188.201 285.216 179.964 291.051 174.245C293.921 171.39 296.154 169.169 297.696 167.635C298.432 166.887 298.998 166.31 299.404 165.897C299.784 165.501 299.974 165.292 299.961 165.28C299.949 165.268 299.736 165.452 299.331 165.825C298.909 166.223 298.321 166.778 297.557 167.498C295.991 169.008 293.724 171.195 290.81 174.006C284.972 179.722 276.564 187.954 266.177 198.121C245.456 218.603 216.871 246.862 185.282 278.088C153.734 309.323 125.121 337.563 104.282 357.884C93.8652 368.047 85.3957 376.233 79.4986 381.848C76.5505 384.655 74.245 386.819 72.6631 388.267C71.0812 389.716 70.2209 390.447 70.1633 390.39C70.1056 390.334 70.8542 389.49 72.3329 387.939C73.8116 386.388 76.0223 384.129 78.8885 381.24C84.621 375.462 92.9789 367.164 103.353 356.96C124.101 336.545 152.927 308.516 184.809 277.615Z" fill="#EBEBEB"/>
<path d="M178.312 269.958C214.668 244.293 247.568 221.068 271.416 204.233C283.27 195.778 292.867 188.932 299.53 184.179C302.814 181.801 305.369 179.95 307.134 178.671C307.978 178.045 308.629 177.562 309.094 177.216C309.533 176.883 309.752 176.706 309.742 176.692C309.732 176.678 309.492 176.828 309.035 177.134C308.555 177.462 307.887 177.92 307.019 178.513C305.234 179.764 302.65 181.576 299.33 183.905C292.663 188.654 283.062 195.493 271.202 203.939C247.51 220.988 214.825 244.509 178.708 270.5C142.628 296.506 109.918 320.004 86.1353 336.875C74.2453 345.313 64.591 352.098 57.8819 356.737C54.5274 359.057 51.9095 360.841 50.1183 362.027C48.3271 363.214 47.3627 363.805 47.3143 363.739C47.2669 363.674 48.1383 362.956 49.8439 361.65C51.5486 360.346 54.0875 358.454 57.3741 356.041C63.9465 351.214 73.5078 344.302 85.3625 335.815C109.068 318.839 141.955 295.583 178.312 269.958Z" fill="#EBEBEB"/>
<path d="M173.104 261.395C213.074 241.664 249.244 223.808 275.462 210.866C288.508 204.345 299.07 199.068 306.404 195.402C310.024 193.559 312.841 192.126 314.784 191.136C315.718 190.647 316.436 190.271 316.951 190.001C317.437 189.74 317.681 189.598 317.673 189.583C317.665 189.567 317.404 189.678 316.904 189.909C316.379 190.159 315.646 190.507 314.694 190.959C312.735 191.919 309.895 193.309 306.247 195.095C298.91 198.755 288.345 204.026 275.295 210.537C249.198 223.715 213.194 241.898 173.409 261.99C133.659 282.102 97.6349 300.258 71.4759 313.247C58.3973 319.744 47.7879 324.953 40.4269 328.498C36.7469 330.271 33.8788 331.628 31.9221 332.523C29.9653 333.419 28.9191 333.852 28.8819 333.781C28.8447 333.708 29.8193 333.134 31.71 332.108C33.6007 331.082 36.4074 329.605 40.0344 327.729C47.2884 323.977 57.8263 318.627 70.8779 312.077C96.9774 298.972 133.14 281.084 173.104 261.395Z" fill="#EBEBEB"/>
<path d="M169.322 252.128C211.934 238.858 250.497 226.85 278.449 218.146C292.37 213.735 303.641 210.164 311.467 207.685C315.335 206.428 318.344 205.45 320.422 204.774C321.421 204.437 322.191 204.177 322.742 203.991C323.263 203.808 323.527 203.706 323.521 203.689C323.516 203.673 323.242 203.742 322.71 203.892C322.152 204.057 321.372 204.287 320.36 204.585C318.272 205.228 315.247 206.159 311.36 207.356C303.532 209.829 292.259 213.392 278.334 217.792C250.463 226.749 212.014 239.107 169.526 252.763C127.071 266.446 88.6053 278.775 60.7044 287.535C46.7544 291.917 35.4484 295.412 27.6141 297.768C23.6969 298.946 20.6493 299.84 18.5745 300.42C16.4987 301 15.3966 301.265 15.3715 301.188C15.3464 301.11 16.4001 300.694 18.4303 299.974C20.4605 299.255 23.4672 298.233 27.3481 296.944C35.1099 294.367 46.3675 290.722 60.2989 286.282C88.1598 277.4 126.719 265.359 169.322 252.128Z" fill="#EBEBEB"/>
<path d="M167.06 242.387C211.254 235.908 251.249 230.044 280.238 225.795C294.688 223.605 306.387 221.832 314.509 220.6C318.53 219.961 321.657 219.463 323.817 219.119C324.857 218.941 325.658 218.804 326.233 218.707C326.776 218.608 327.053 218.548 327.05 218.531C327.048 218.515 326.766 218.54 326.217 218.606C325.64 218.682 324.833 218.788 323.786 218.926C321.621 219.236 318.486 219.685 314.457 220.263C306.333 221.489 294.633 223.254 280.181 225.434C251.232 229.946 211.294 236.17 167.162 243.048C123.057 249.957 83.1068 256.15 54.1586 260.461C39.6851 262.62 27.9624 264.313 19.8519 265.422C15.7961 265.977 12.6444 266.386 10.5026 266.636C8.36079 266.885 7.22991 266.977 7.21689 266.897C7.2048 266.816 8.3115 266.569 10.431 266.175C12.5504 265.781 15.6818 265.24 19.7198 264.57C27.795 263.232 39.4935 261.383 53.9578 259.166C82.8854 254.724 122.882 248.828 167.06 242.387Z" fill="#EBEBEB"/>
<path d="M166.368 232.414C211.045 232.784 251.475 233.119 280.78 233.362C295.4 233.414 307.235 233.456 315.454 233.485C319.525 233.471 322.693 233.459 324.88 233.452C325.936 233.436 326.749 233.424 327.332 233.415C327.884 233.401 328.167 233.386 328.167 233.37C328.167 233.353 327.884 233.335 327.332 233.317C326.749 233.304 325.936 233.286 324.88 233.262C322.693 233.238 319.524 233.203 315.454 233.156C307.235 233.123 295.4 233.073 280.78 233.013C251.474 233.03 211.042 233.054 166.364 233.081C121.709 233.14 81.2694 233.131 51.9948 232.953C37.3576 232.867 25.5112 232.744 17.3244 232.598C13.2306 232.525 10.0528 232.447 7.89795 232.367C5.74314 232.287 4.61133 232.205 4.61133 232.125C4.61133 232.046 5.74407 231.973 7.89888 231.909C10.0546 231.846 13.2334 231.792 17.3272 231.751C25.5149 231.668 37.3622 231.636 51.9995 231.662C81.2768 231.709 121.714 232.012 166.368 232.414Z" fill="#EBEBEB"/>
<path d="M167.245 222.45C211.321 229.679 251.206 236.221 280.117 240.963C294.551 243.258 306.236 245.116 314.35 246.406C318.375 247.015 321.506 247.49 323.668 247.818C324.714 247.964 325.519 248.076 326.097 248.157C326.644 248.228 326.927 248.255 326.929 248.238C326.932 248.221 326.656 248.159 326.113 248.056C325.54 247.954 324.74 247.81 323.7 247.624C321.543 247.263 318.419 246.74 314.406 246.069C306.292 244.773 294.61 242.907 280.177 240.601C251.223 236.121 211.278 229.94 167.137 223.11C123.013 216.317 83.0662 210.103 54.1758 205.432C39.7292 203.1 28.0465 201.158 19.9825 199.756C15.95 199.055 12.8233 198.488 10.7066 198.077C8.58996 197.666 7.48606 197.41 7.49815 197.33C7.51117 197.249 8.64205 197.35 10.781 197.617C12.921 197.883 16.07 198.317 20.1201 198.905C28.2213 200.078 39.93 201.865 54.386 204.138C83.2997 208.679 123.198 215.19 167.245 222.45Z" fill="#EBEBEB"/>
<path d="M169.691 212.744C212.064 226.744 250.409 239.414 278.204 248.598C292.091 253.111 303.334 256.763 311.142 259.3C315.02 260.528 318.037 261.483 320.12 262.143C321.129 262.449 321.906 262.685 322.463 262.855C322.993 263.009 323.268 263.08 323.273 263.063C323.279 263.047 323.016 262.942 322.497 262.756C321.946 262.565 321.179 262.298 320.183 261.953C318.11 261.26 315.109 260.257 311.252 258.969C303.447 256.427 292.207 252.765 278.323 248.242C250.443 239.312 211.981 226.993 169.479 213.381C126.988 199.809 88.5284 187.457 60.7428 178.348C46.8486 173.796 35.6216 170.059 27.8822 167.418C24.0124 166.097 21.0141 165.051 18.9904 164.314C16.9667 163.578 15.9158 163.153 15.9419 163.075C15.9679 162.997 17.0681 163.271 19.1392 163.867C21.2094 164.463 24.2505 165.382 28.1574 166.59C35.9713 169.009 47.2485 172.594 61.1622 177.089C88.9887 186.076 127.351 198.717 169.691 212.744Z" fill="#EBEBEB"/>
<path d="M173.652 203.55C213.27 223.963 249.121 242.435 275.107 255.825C288.104 262.442 298.625 267.798 305.931 271.518C309.565 273.334 312.392 274.747 314.343 275.723C315.292 276.183 316.021 276.537 316.543 276.792C317.042 277.028 317.301 277.14 317.31 277.124C317.318 277.11 317.074 276.966 316.591 276.7C316.078 276.427 315.363 276.044 314.434 275.548C312.498 274.543 309.693 273.087 306.089 271.215C298.786 267.49 288.269 262.126 275.277 255.5C249.169 242.344 213.149 224.194 173.345 204.139C133.545 184.123 97.5339 165.941 71.5441 152.625C58.5483 145.97 48.0542 140.535 40.8309 136.724C37.2197 134.819 34.425 133.321 32.5427 132.28C30.6604 131.238 29.6904 130.657 29.7276 130.585C29.7648 130.513 30.8073 130.957 32.7566 131.869C34.7059 132.78 37.5619 134.16 41.227 135.964C48.5573 139.569 59.123 144.865 72.1468 151.468C98.197 164.669 134.07 183.117 173.652 203.55Z" fill="#EBEBEB"/>
<path d="M179.022 195.08C214.924 221.363 247.412 245.147 270.962 262.387C282.752 270.929 292.296 277.846 298.924 282.648C302.226 285.003 304.794 286.836 306.567 288.101C307.431 288.703 308.096 289.166 308.572 289.497C309.027 289.807 309.265 289.958 309.276 289.944C309.286 289.93 309.068 289.751 308.633 289.415C308.17 289.065 307.524 288.577 306.684 287.944C304.93 286.651 302.391 284.78 299.127 282.374C292.502 277.567 282.962 270.645 271.178 262.094C247.471 245.066 214.765 221.575 178.623 195.617C142.479 169.699 109.785 146.178 86.2219 129.01C74.4378 120.428 64.9332 113.439 58.4019 108.559C55.1357 106.119 52.6126 104.207 50.9181 102.889C49.2237 101.57 48.3579 100.845 48.4062 100.78C48.4546 100.714 49.4143 101.313 51.1953 102.514C52.9762 103.716 55.5793 105.521 58.9143 107.868C65.5842 112.561 75.1828 119.424 87.0021 127.958C110.646 145.022 143.159 168.784 179.022 195.08Z" fill="#EBEBEB"/>
<path d="M185.66 187.544C216.988 219.025 245.339 247.514 265.889 268.163C276.19 278.414 284.53 286.714 290.322 292.476C293.212 295.31 295.461 297.516 297.014 299.038C297.772 299.765 298.356 300.325 298.774 300.725C299.175 301.102 299.387 301.287 299.399 301.275C299.411 301.263 299.224 301.052 298.847 300.654C298.444 300.237 297.882 299.655 297.153 298.901C295.624 297.355 293.41 295.116 290.564 292.239C284.777 286.472 276.443 278.167 266.148 267.909C245.409 247.444 216.798 219.211 185.182 188.013C153.558 156.854 124.964 128.593 104.388 108.012C94.098 97.7236 85.8099 89.3589 80.1248 83.5348C77.2827 80.6223 75.0907 78.3464 73.625 76.7834C72.1593 75.2205 71.4181 74.3714 71.4758 74.3146C71.5334 74.2577 72.3872 74.9968 73.957 76.4572C75.5269 77.9177 77.8147 80.1014 80.7395 82.9318C86.5901 88.5937 94.9908 96.8485 105.324 107.095C125.993 127.584 154.372 156.055 185.66 187.544Z" fill="#EBEBEB"/>
<path d="M193.405 181.12C219.398 217.033 242.919 249.533 259.969 273.091C268.532 284.802 275.465 294.281 280.278 300.864C282.688 304.107 284.562 306.632 285.856 308.375C286.492 309.209 286.98 309.851 287.33 310.312C287.667 310.744 287.847 310.961 287.861 310.951C287.875 310.941 287.723 310.704 287.413 310.252C287.081 309.779 286.618 309.118 286.016 308.26C284.75 306.498 282.915 303.945 280.556 300.666C275.747 294.079 268.822 284.595 260.267 272.879C243.001 249.475 219.181 217.188 192.858 181.51C166.522 145.87 142.724 113.558 125.638 90.0643C117.092 78.3193 110.221 68.7821 105.523 62.1547C103.174 58.8414 101.368 56.2551 100.165 54.4862C98.9627 52.7172 98.3647 51.7638 98.4307 51.7172C98.4967 51.6697 99.224 52.5308 100.546 54.215C101.867 55.8991 103.783 58.4071 106.227 61.6532C111.115 68.1446 118.115 77.5904 126.709 89.301C143.901 112.717 167.453 145.204 193.405 181.12Z" fill="#EBEBEB"/>
<path d="M202.065 175.967C222.055 215.456 240.145 251.191 253.257 277.094C259.863 289.983 265.211 300.417 268.924 307.663C270.791 311.239 272.243 314.022 273.246 315.943C273.742 316.865 274.122 317.575 274.395 318.084C274.659 318.563 274.803 318.805 274.818 318.797C274.834 318.79 274.722 318.532 274.487 318.037C274.234 317.518 273.881 316.794 273.423 315.855C272.451 313.918 271.043 311.114 269.233 307.51C265.525 300.261 260.185 289.823 253.588 276.929C240.236 251.146 221.816 215.576 201.461 176.27C181.086 136.999 162.69 101.408 149.531 75.5636C142.949 62.6424 137.67 52.1602 134.079 44.8887C132.283 41.253 130.907 38.4197 130.001 36.4858C129.094 34.5519 128.653 33.5183 128.727 33.482C128.799 33.4456 129.382 34.4074 130.421 36.2752C131.46 38.1429 132.956 40.9156 134.856 44.4991C138.658 51.6662 144.077 62.0776 150.714 74.9709C163.993 100.756 182.116 136.483 202.065 175.967Z" fill="#EBEBEB"/>
<path d="M211.439 172.221C224.893 214.327 237.069 252.43 245.894 280.049C250.366 293.805 253.986 304.94 256.5 312.674C257.774 316.495 258.767 319.469 259.451 321.522C259.793 322.509 260.057 323.27 260.246 323.815C260.431 324.329 260.535 324.59 260.551 324.585C260.568 324.579 260.498 324.308 260.346 323.783C260.178 323.232 259.945 322.462 259.643 321.462C258.991 319.398 258.047 316.409 256.833 312.569C254.326 304.834 250.714 293.696 246.252 279.936C237.171 252.399 224.642 214.408 210.796 172.426C196.924 130.477 184.423 92.4693 175.543 64.9007C171.099 51.1174 167.556 39.9446 165.167 32.2052C163.972 28.3356 163.066 25.3233 162.478 23.2729C161.89 21.2225 161.621 20.133 161.699 20.1079C161.777 20.0827 162.199 21.1237 162.928 23.1294C163.657 25.1351 164.692 28.1063 166 31.9405C168.613 39.609 172.309 50.7334 176.809 64.499C185.816 92.0266 198.025 130.127 211.439 172.221Z" fill="#EBEBEB"/>
<path d="M221.295 169.981C227.879 213.653 233.837 253.176 238.155 281.823C240.381 296.103 242.183 307.662 243.434 315.69C244.084 319.662 244.589 322.752 244.938 324.887C245.118 325.915 245.258 326.707 245.357 327.275C245.458 327.811 245.518 328.085 245.535 328.083C245.552 328.08 245.526 327.801 245.459 327.259C245.382 326.688 245.274 325.891 245.134 324.857C244.819 322.717 244.362 319.619 243.774 315.638C242.529 307.609 240.736 296.048 238.521 281.767C233.938 253.16 227.614 213.694 220.627 170.082C213.608 126.497 207.315 87.0189 202.934 58.413C200.741 44.1106 199.02 32.5267 197.893 24.5115C197.329 20.5039 196.913 17.3892 196.659 15.2726C196.404 13.156 196.311 12.0386 196.392 12.0265C196.473 12.0144 196.724 13.1076 197.124 15.2027C197.523 17.2969 198.073 20.3921 198.753 24.382C200.113 32.3618 201.99 43.9223 204.244 58.2155C208.758 86.8008 214.749 126.325 221.295 169.981Z" fill="#EBEBEB"/>
<path d="M231.384 169.29C231.038 213.444 230.725 253.4 230.498 282.363C230.454 296.811 230.42 308.508 230.395 316.63C230.412 320.653 230.425 323.785 230.435 325.946C230.451 326.99 230.463 327.794 230.473 328.37C230.487 328.916 230.503 329.195 230.52 329.195C230.537 329.195 230.554 328.916 230.573 328.37C230.586 327.794 230.604 326.991 230.627 325.948C230.65 323.787 230.685 320.655 230.728 316.632C230.757 308.51 230.799 296.814 230.851 282.366C230.815 253.403 230.765 213.445 230.71 169.29C230.621 125.157 230.606 85.1921 230.767 56.26C230.845 41.7935 230.962 30.0866 231.104 21.9959C231.176 17.9501 231.252 14.8093 231.332 12.6797C231.412 10.55 231.494 9.43164 231.575 9.43164C231.655 9.43164 231.73 10.551 231.795 12.6815C231.861 14.8121 231.917 17.9538 231.962 21.9997C232.051 30.0913 232.091 41.7991 232.073 56.2656C232.043 85.1949 231.763 125.159 231.384 169.29Z" fill="#EBEBEB"/>
<path d="M241.467 170.151C234.18 213.715 227.586 253.139 222.807 281.714C220.494 295.98 218.622 307.529 217.322 315.549C216.707 319.527 216.23 322.622 215.9 324.759C215.753 325.793 215.64 326.589 215.559 327.159C215.488 327.7 215.46 327.979 215.478 327.982C215.495 327.985 215.558 327.712 215.662 327.175C215.765 326.608 215.91 325.817 216.098 324.79C216.462 322.658 216.988 319.571 217.665 315.603C218.971 307.584 220.852 296.037 223.175 281.771C227.69 253.153 233.919 213.673 240.802 170.045C247.647 126.434 253.908 86.9508 258.616 58.3953C260.967 44.1171 262.924 32.5696 264.338 24.5991C265.045 20.6139 265.616 17.5224 266.031 15.431C266.446 13.3396 266.704 12.2473 266.785 12.2604C266.866 12.2734 266.765 13.39 266.497 15.5047C266.228 17.6194 265.791 20.7313 265.199 24.7352C264.017 32.7429 262.217 44.3146 259.925 58.6022C255.347 87.1792 248.784 126.615 241.467 170.151Z" fill="#EBEBEB"/>
<path d="M251.289 172.562C237.151 214.447 224.356 252.352 215.081 279.827C210.524 293.555 206.835 304.669 204.273 312.387C203.034 316.219 202.068 319.201 201.402 321.261C201.093 322.258 200.855 323.026 200.684 323.578C200.527 324.102 200.456 324.373 200.473 324.379C200.49 324.384 200.596 324.124 200.784 323.611C200.976 323.066 201.245 322.309 201.595 321.323C202.294 319.274 203.307 316.307 204.608 312.496C207.176 304.78 210.874 293.669 215.442 279.945C224.459 252.386 236.899 214.366 250.645 172.354C264.35 130.351 276.824 92.3339 286.023 64.8678C290.62 51.1339 294.393 40.0347 297.061 32.3848C298.395 28.559 299.452 25.5961 300.195 23.5951C300.939 21.5941 301.369 20.5568 301.447 20.582C301.526 20.6072 301.249 21.6948 300.647 23.7415C300.046 25.7881 299.118 28.7938 297.897 32.6561C295.455 40.3805 291.835 51.5281 287.295 65.2807C278.221 92.7878 265.455 130.709 251.289 172.562Z" fill="#EBEBEB"/>
<path d="M260.596 176.469C239.967 215.636 221.299 251.08 207.768 276.77C201.081 289.619 195.667 300.021 191.909 307.243C190.073 310.835 188.646 313.63 187.66 315.559C187.195 316.497 186.837 317.218 186.58 317.734C186.342 318.227 186.228 318.484 186.244 318.491C186.259 318.499 186.405 318.258 186.671 317.781C186.949 317.274 187.335 316.566 187.836 315.648C188.851 313.734 190.324 310.961 192.215 307.398C195.979 300.178 201.4 289.781 208.096 276.937C221.39 251.125 239.733 215.515 260 176.165C280.228 136.819 298.601 101.218 312.058 75.5234C318.784 62.6748 324.276 52.3007 328.127 45.1597C330.052 41.5892 331.567 38.8259 332.619 36.9656C333.671 35.1053 334.26 34.1463 334.332 34.1826C334.405 34.2199 333.956 35.2498 333.036 37.1772C332.114 39.1045 330.719 41.9276 328.897 45.5512C325.254 52.7984 319.902 63.2433 313.229 76.1189C299.889 101.874 281.245 137.338 260.596 176.469Z" fill="#EBEBEB"/>
<path d="M269.169 181.771C242.598 217.269 218.553 249.393 201.124 272.677C192.487 284.334 185.495 293.772 180.64 300.324C178.26 303.588 176.406 306.128 175.127 307.882C174.519 308.736 174.051 309.393 173.717 309.864C173.403 310.315 173.251 310.55 173.265 310.561C173.278 310.571 173.46 310.356 173.799 309.925C174.153 309.467 174.647 308.828 175.286 307.999C176.593 306.265 178.486 303.753 180.917 300.526C185.777 293.976 192.775 284.544 201.42 272.892C218.635 249.451 242.383 217.113 268.626 181.378C294.828 145.64 318.607 113.315 335.963 90.0159C344.639 78.3649 351.706 68.9667 356.638 62.5088C359.106 59.2794 361.038 56.7845 362.372 55.1097C363.705 53.4339 364.438 52.5784 364.504 52.6259C364.569 52.6734 363.965 53.6222 362.75 55.3837C361.536 57.1442 359.711 59.7184 357.339 63.0158C352.594 69.6107 345.656 79.1012 337.028 90.7876C319.778 114.164 295.755 146.312 269.169 181.771Z" fill="#EBEBEB"/>
<path d="M276.799 188.329C244.965 219.311 216.158 247.347 195.276 267.669C184.91 277.857 176.518 286.104 170.69 291.831C167.824 294.69 165.593 296.914 164.054 298.45C163.32 299.199 162.753 299.777 162.349 300.19C161.968 300.587 161.779 300.796 161.792 300.808C161.804 300.821 162.017 300.636 162.42 300.262C162.842 299.864 163.429 299.309 164.193 298.587C165.756 297.076 168.021 294.886 170.931 292.071C176.762 286.348 185.16 278.106 195.533 267.925C216.226 247.416 244.775 219.121 276.324 187.856C307.832 156.581 336.409 128.305 357.221 107.958C367.625 97.7825 376.084 89.5846 381.974 83.9637C384.919 81.1528 387.221 78.9859 388.802 77.5357C390.382 76.0855 391.241 75.353 391.298 75.4098C391.356 75.4667 390.608 76.3111 389.131 77.8638C387.654 79.4165 385.446 81.6784 382.584 84.5704C376.859 90.3554 368.511 98.6641 358.15 108.882C337.431 129.322 308.641 157.387 276.799 188.329Z" fill="#EBEBEB"/>
<path d="M283.305 195.977C246.982 221.688 214.112 244.955 190.286 261.82C178.443 270.29 168.855 277.148 162.197 281.909C158.916 284.292 156.363 286.146 154.6 287.427C153.756 288.055 153.107 288.537 152.641 288.884C152.204 289.217 151.984 289.395 151.994 289.409C152.005 289.423 152.244 289.273 152.701 288.966C153.18 288.638 153.848 288.18 154.716 287.584C156.498 286.33 159.079 284.516 162.397 282.183C169.059 277.426 178.651 270.575 190.501 262.113C214.171 245.035 246.826 221.474 282.91 195.436C318.956 169.385 351.635 145.845 375.396 128.945C387.275 120.492 396.921 113.694 403.624 109.047C406.975 106.723 409.591 104.936 411.38 103.747C413.169 102.558 414.134 101.966 414.181 102.031C414.228 102.096 413.358 102.816 411.654 104.123C409.95 105.429 407.414 107.325 404.131 109.742C397.566 114.577 388.013 121.501 376.169 130.001C352.486 147.009 319.629 170.307 283.305 195.977Z" fill="#EBEBEB"/>
<path d="M288.524 204.534C248.58 224.316 212.433 242.217 186.232 255.193C173.194 261.73 162.64 267.021 155.31 270.696C151.694 272.543 148.879 273.98 146.936 274.973C146.003 275.463 145.285 275.839 144.771 276.11C144.285 276.372 144.041 276.513 144.049 276.528C144.057 276.544 144.317 276.433 144.817 276.201C145.342 275.95 146.075 275.602 147.026 275.148C148.985 274.186 151.822 272.792 155.468 271C162.8 267.331 173.358 262.048 186.4 255.52C212.48 242.308 248.46 224.081 288.22 203.938C327.943 183.775 363.943 165.574 390.085 152.552C403.155 146.038 413.758 140.815 421.114 137.261C424.792 135.484 427.657 134.123 429.614 133.226C431.57 132.328 432.616 131.893 432.652 131.965C432.689 132.037 431.716 132.613 429.827 133.641C427.938 134.669 425.133 136.149 421.508 138.03C414.259 141.792 403.727 147.154 390.685 153.721C364.601 166.86 328.462 184.793 288.524 204.534Z" fill="#EBEBEB"/>
<path d="M292.32 213.795C249.724 227.119 211.178 239.176 183.237 247.917C169.321 252.346 158.055 255.93 150.233 258.419C146.367 259.681 143.358 260.664 141.282 261.341C140.283 261.68 139.514 261.941 138.962 262.128C138.442 262.31 138.178 262.413 138.184 262.43C138.189 262.447 138.464 262.378 138.995 262.227C139.553 262.061 140.331 261.83 141.343 261.53C143.431 260.885 146.454 259.95 150.34 258.748C158.165 256.266 169.433 252.689 183.352 248.271C211.21 239.278 249.643 226.87 292.114 213.161C334.551 199.424 373.001 187.045 400.891 178.251C414.835 173.851 426.137 170.341 433.967 167.975C437.883 166.793 440.929 165.894 443.004 165.312C445.079 164.729 446.18 164.463 446.206 164.54C446.231 164.617 445.178 165.035 443.149 165.757C441.12 166.479 438.114 167.505 434.235 168.798C426.477 171.386 415.223 175.045 401.298 179.502C373.449 188.421 334.905 200.51 292.32 213.795Z" fill="#EBEBEB"/>
<path d="M294.593 223.533C250.407 230.069 210.42 235.982 181.436 240.268C166.988 242.477 155.293 244.266 147.171 245.507C143.153 246.152 140.025 246.654 137.866 247C136.825 247.179 136.024 247.317 135.45 247.417C134.907 247.517 134.63 247.576 134.633 247.593C134.636 247.611 134.917 247.585 135.466 247.518C136.044 247.441 136.85 247.334 137.896 247.195C140.06 246.882 143.195 246.428 147.224 245.846C155.347 244.61 167.044 242.83 181.493 240.632C210.436 236.084 250.366 229.809 294.49 222.875C338.586 215.911 378.528 209.667 407.471 205.318C421.941 203.141 433.661 201.434 441.771 200.315C445.826 199.754 448.977 199.342 451.119 199.089C453.261 198.836 454.391 198.743 454.404 198.823C454.417 198.904 453.31 199.152 451.191 199.548C449.072 199.946 445.941 200.491 441.904 201.165C433.831 202.513 422.134 204.376 407.672 206.612C378.75 211.09 338.761 217.037 294.593 223.533Z" fill="#EBEBEB"/>
<path d="M352.363 346.144C347.101 339.938 339.823 336.202 334.765 334.776C330.028 333.44 322.848 332.222 315.537 334.009C310.997 335.119 307.02 337.263 303.719 340.382C299.808 344.077 296.822 349.171 294.844 355.523C294.547 356.477 294.646 357.485 295.122 358.365C295.6 359.249 296.395 359.886 297.361 360.158L309.78 363.662C311.533 364.156 313.407 363.27 314.14 361.602C315.787 357.854 319.944 351.934 329.283 354.396C336.4 356.275 337.877 362.232 338.182 364.708C338.679 368.737 337.095 372.903 333.947 375.85C329.108 380.378 322.794 379.499 319.461 378.573C315.627 377.506 311.638 379.743 310.566 383.558L306.804 396.951C306.255 398.907 307.396 400.945 309.348 401.496L321.448 404.909C323.4 405.46 325.434 404.316 325.984 402.36L326.774 399.546C326.793 399.479 326.852 399.433 326.923 399.428C329.935 399.237 335.902 398.407 342.027 394.989C349.847 390.625 355.151 383.642 357.794 374.234C361.576 360.771 356.928 351.527 352.363 346.144Z" fill="#E0E0E0"/>
<path d="M315.054 406.744L313.995 406.446C308.935 405.018 303.658 407.983 302.234 413.055C300.811 418.127 303.768 423.414 308.829 424.841L309.887 425.139C314.948 426.567 320.224 423.602 321.648 418.53C323.072 413.458 320.115 408.172 315.054 406.744Z" fill="#E0E0E0"/>
<path d="M379.031 271.967C375.377 269.961 371.208 269.509 368.525 269.754C366.012 269.984 362.351 270.72 359.177 272.917C357.205 274.283 355.693 276.039 354.682 278.139C353.485 280.627 352.987 283.615 353.201 287.019C353.233 287.53 353.465 287.995 353.853 288.329C354.244 288.664 354.742 288.823 355.254 288.776L361.842 288.173C362.772 288.088 363.508 287.32 363.553 286.386C363.657 284.289 364.565 280.691 369.488 280.155C373.239 279.748 375.035 282.329 375.634 283.459C376.609 285.297 376.612 287.582 375.643 289.572C374.154 292.629 370.97 293.367 369.204 293.536C367.174 293.729 365.672 295.533 365.856 297.556L366.503 304.661C366.598 305.698 367.517 306.465 368.552 306.371L374.971 305.784C376.006 305.689 376.771 304.768 376.677 303.731L376.541 302.238C376.537 302.202 376.557 302.169 376.59 302.154C377.997 301.51 380.703 300.016 383.012 297.254C385.958 293.729 387.222 289.411 386.767 284.421C386.117 277.279 382.202 273.707 379.031 271.967Z" fill="#F5F5F5"/>
<path d="M372.244 307.837L371.683 307.889C368.999 308.135 367.014 310.523 367.259 313.213C367.504 315.904 369.887 317.892 372.572 317.647L373.133 317.596C375.817 317.349 377.802 314.962 377.557 312.271C377.312 309.58 374.928 307.591 372.244 307.837Z" fill="#F5F5F5"/>
<path d="M115.209 120.294C112.733 117.849 109.491 116.534 107.282 116.117C105.214 115.728 102.109 115.481 99.0621 116.519C97.1696 117.164 95.556 118.228 94.267 119.682C92.74 121.405 91.6603 123.688 91.0576 126.469C90.9674 126.887 91.0474 127.313 91.2836 127.67C91.5207 128.028 91.8834 128.269 92.3057 128.349L97.7294 129.37C98.4948 129.515 99.2602 129.067 99.5094 128.328C100.069 126.669 101.618 123.989 105.689 124.683C108.792 125.215 109.646 127.697 109.87 128.74C110.233 130.438 109.716 132.272 108.486 133.646C106.595 135.759 103.872 135.624 102.417 135.355C100.744 135.046 99.1281 136.15 98.8157 137.816L97.7183 143.665C97.5583 144.518 98.121 145.344 98.9728 145.504L104.257 146.5C105.109 146.66 105.933 146.096 106.093 145.242L106.324 144.014C106.329 143.984 106.352 143.963 106.382 143.958C107.658 143.762 110.169 143.183 112.649 141.495C115.816 139.339 117.813 136.164 118.583 132.056C119.686 126.176 117.357 122.414 115.209 120.294Z" fill="#F5F5F5"/>
<path d="M101.601 147.525L101.139 147.438C98.9293 147.021 96.7931 148.485 96.3774 150.699C95.9616 152.914 97.4217 155.054 99.6314 155.471L100.094 155.558C102.303 155.974 104.44 154.511 104.855 152.297C105.27 150.082 103.811 147.941 101.601 147.525Z" fill="#F5F5F5"/>
<path d="M369.217 122.161C365.571 120.142 361.404 119.673 358.72 119.908C356.206 120.128 352.542 120.848 349.36 123.034C347.383 124.391 345.864 126.142 344.845 128.238C343.637 130.721 343.127 133.706 343.328 137.113C343.357 137.623 343.588 138.089 343.975 138.425C344.365 138.762 344.861 138.923 345.374 138.878L351.964 138.301C352.894 138.22 353.632 137.455 353.682 136.521C353.794 134.424 354.717 130.83 359.641 130.313C363.394 129.92 365.18 132.509 365.774 133.642C366.741 135.483 366.736 137.77 365.759 139.755C364.258 142.806 361.071 143.531 359.304 143.693C357.273 143.878 355.764 145.676 355.94 147.7L356.56 154.807C356.65 155.845 357.566 156.615 358.602 156.524L365.023 155.962C366.059 155.872 366.827 154.954 366.737 153.916L366.607 152.423C366.604 152.387 366.623 152.354 366.657 152.339C368.067 151.7 370.779 150.217 373.098 147.465C376.058 143.952 377.339 139.638 376.904 134.647C376.282 127.503 372.38 123.914 369.217 122.161Z" fill="#EBEBEB"/>
<path d="M362.289 158.005L361.727 158.054C359.042 158.289 357.048 160.67 357.282 163.361C357.517 166.053 359.892 168.051 362.578 167.815L363.14 167.766C365.824 167.531 367.818 165.151 367.584 162.459C367.35 159.768 364.974 157.77 362.289 158.005Z" fill="#EBEBEB"/>
<path d="M171.079 336.926C166.516 334.773 161.444 334.534 158.221 335.029C155.201 335.492 150.831 336.651 147.157 339.543C144.875 341.338 143.176 343.572 142.11 346.185C140.846 349.279 140.463 352.927 140.972 357.026C141.049 357.641 141.363 358.186 141.858 358.561C142.354 358.937 142.967 359.093 143.583 358.998L151.5 357.783C152.617 357.611 153.449 356.629 153.437 355.497C153.408 352.956 154.242 348.54 160.151 347.529C164.655 346.76 167.015 349.747 167.822 351.069C169.136 353.218 169.308 355.979 168.283 358.456C166.708 362.26 162.914 363.388 160.793 363.721C158.353 364.105 156.671 366.395 157.042 368.828L158.347 377.365C158.537 378.612 159.704 379.47 160.949 379.28L168.662 378.097C169.907 377.906 170.763 376.736 170.573 375.489L170.299 373.695C170.292 373.652 170.314 373.61 170.353 373.589C172.006 372.707 175.167 370.702 177.753 367.194C181.054 362.716 182.263 357.404 181.347 351.407C180.033 342.824 175.038 338.795 171.079 336.926Z" fill="#EBEBEB"/>
<path d="M165.517 380.777L164.841 380.88C161.615 381.375 159.393 384.409 159.887 387.641C160.382 390.873 163.408 393.102 166.633 392.606L167.309 392.502C170.535 392.007 172.758 388.975 172.263 385.742C171.769 382.509 168.742 380.282 165.517 380.777Z" fill="#EBEBEB"/>
<path d="M101.657 175.369C95.2398 172.355 88.1151 172.031 83.586 172.735C79.3452 173.394 73.2072 175.033 68.0522 179.103C64.8502 181.632 62.4704 184.775 60.9777 188.448C59.2098 192.799 58.6815 197.925 59.4069 203.683C59.5158 204.547 59.9584 205.312 60.6541 205.837C61.3525 206.364 62.2137 206.581 63.0786 206.447L74.1986 204.72C75.7675 204.477 76.9347 203.094 76.9142 201.504C76.8668 197.932 78.0265 191.727 86.3258 190.291C92.6517 189.2 95.9755 193.391 97.1129 195.245C98.9636 198.261 99.2119 202.14 97.7787 205.622C95.5756 210.971 90.2485 212.565 87.2679 213.039C83.8408 213.584 81.4833 216.806 82.0115 220.223L83.8659 232.215C84.1366 233.966 85.779 235.17 87.5264 234.899L98.3609 233.217C100.108 232.946 101.31 231.3 101.039 229.549L100.65 227.029C100.64 226.969 100.67 226.911 100.725 226.881C103.046 225.637 107.481 222.813 111.106 217.878C115.733 211.578 117.418 204.113 116.116 195.689C114.252 183.632 107.224 177.984 101.657 175.369Z" fill="#EBEBEB"/>
<path d="M93.9498 236.991L93.0021 237.138C88.4711 237.842 85.3556 242.108 86.0578 246.649C86.7599 251.19 91.0175 254.312 95.5484 253.608L96.4961 253.461C101.027 252.757 104.143 248.491 103.44 243.95C102.738 239.409 98.4807 236.287 93.9498 236.991Z" fill="#EBEBEB"/>
<path d="M258.277 99.4159L266.659 100.816C270.78 105.752 276.421 109.529 283.186 111.333C299.143 115.589 316.026 106.808 321.771 91.2954C328.411 73.3702 318.272 53.5755 299.693 48.634C283.921 44.4391 267.233 52.9529 261.317 68.1929C258.381 75.7561 258.466 83.6772 260.926 90.6989L260.916 90.684L258.277 99.4159Z" fill="white"/>
<path d="M258.277 99.4157C258.277 99.4157 258.32 99.2331 258.426 98.8603C258.539 98.4679 258.699 97.9124 258.906 97.1911C259.346 95.6868 259.989 93.4929 260.819 90.6559L260.877 90.4592L260.994 90.6279L261.004 90.6428L260.83 90.7314C259.491 86.9381 258.351 81.5269 259.303 75.1437C259.765 71.9674 260.782 68.6057 262.421 65.271C264.086 61.9531 266.459 58.7134 269.529 55.9044C272.609 53.1121 276.395 50.7775 280.678 49.2564C284.952 47.7447 289.736 46.9889 294.595 47.5099C299.445 47.988 304.337 49.6069 308.721 52.3153C313.128 54.9985 316.89 58.9297 319.584 63.5747C321.009 65.8954 321.96 68.4398 322.773 70.9758C322.958 71.616 323.078 72.2722 323.233 72.9171C323.36 73.5676 323.571 74.2014 323.626 74.8613C323.705 75.5165 323.784 76.1698 323.863 76.8213L323.975 77.7971L323.991 78.7766C324.181 83.9958 323.068 89.092 321.047 93.5861C319.042 98.1063 315.933 101.895 312.441 104.849C308.931 107.804 304.964 109.898 300.97 111.14C296.966 112.37 292.95 112.767 289.233 112.512C288.308 112.404 287.398 112.298 286.504 112.193C285.613 112.068 284.756 111.832 283.905 111.661C282.208 111.292 280.623 110.733 279.137 110.132C273.169 107.676 269.122 103.936 266.585 100.878L266.643 100.911C263.943 100.435 261.845 100.066 260.402 99.8118C259.712 99.687 259.182 99.591 258.805 99.5229C258.448 99.4558 258.277 99.4157 258.277 99.4157C258.277 99.4157 258.477 99.4381 258.847 99.4931C259.232 99.5518 259.772 99.6348 260.474 99.7429C261.907 99.9693 263.991 100.298 266.674 100.721L266.709 100.727L266.732 100.755C269.288 103.768 273.33 107.446 279.254 109.845C280.729 110.432 282.301 110.978 283.983 111.335C284.827 111.499 285.675 111.729 286.557 111.85C287.442 111.949 288.342 112.05 289.258 112.153C292.933 112.389 296.9 111.982 300.851 110.755C304.792 109.516 308.703 107.437 312.16 104.514C315.598 101.591 318.657 97.8509 320.625 93.3932C322.611 88.9606 323.703 83.9361 323.511 78.7952L323.495 77.8297L323.384 76.8679C323.306 76.2266 323.228 75.5826 323.149 74.9377C323.096 74.2881 322.885 73.6636 322.761 73.0234C322.607 72.3887 322.489 71.7419 322.307 71.1109C321.504 68.6131 320.569 66.107 319.164 63.8208C316.509 59.2447 312.806 55.3703 308.467 52.7244C304.15 50.0533 299.328 48.4521 294.549 47.974C289.762 47.453 285.043 48.1902 280.823 49.6721C276.594 51.1633 272.85 53.4579 269.8 56.2064C266.76 58.9716 264.403 62.1637 262.743 65.4369C261.109 68.7268 260.086 72.0504 259.612 75.1931C258.634 81.5083 259.724 86.8841 261.015 90.668L261.251 91.3586L260.841 90.7565L260.831 90.7416L261.006 90.7146C260.136 93.5125 259.462 95.6756 259 97.1584C258.77 97.8854 258.594 98.4427 258.469 98.8379C258.35 99.2144 258.277 99.4157 258.277 99.4157Z" fill="#263238"/>
<path d="M298.308 65.0295C295.828 63.3817 292.888 62.8094 290.964 62.8225C289.163 62.8346 286.512 63.1375 284.122 64.5103C282.637 65.3631 281.456 66.5225 280.61 67.9559C279.609 69.654 279.075 71.7501 279.024 74.1864C279.016 74.5517 279.153 74.8965 279.41 75.1575C279.667 75.4194 280.012 75.5629 280.38 75.5601L285.104 75.5275C285.771 75.5229 286.34 75.0205 286.429 74.3588C286.628 72.8722 287.491 70.367 291.026 70.2813C293.721 70.2179 294.844 72.163 295.203 73.0027C295.786 74.37 295.652 75.9963 294.843 77.3542C293.6 79.44 291.289 79.7737 290.023 79.7868C288.566 79.8017 287.389 80.9956 287.399 82.4467L287.434 87.5419C287.438 88.2857 288.047 88.8868 288.79 88.8821L293.393 88.8504C294.135 88.8458 294.735 88.2363 294.731 87.4916L294.723 86.4207C294.723 86.3946 294.739 86.3723 294.763 86.3639C295.804 85.9901 297.818 85.0908 299.627 83.264C301.935 80.9322 303.093 77.9358 303.069 74.3569C303.032 69.2374 300.459 66.4582 298.308 65.0295Z" fill="#55A630"/>
<path d="M291.326 90.1485L290.923 90.1513C288.998 90.1644 287.442 91.745 287.455 93.6743C287.468 95.6035 289.045 97.1628 290.971 97.1497L291.373 97.1469C293.298 97.1339 294.854 95.5532 294.841 93.624C294.828 91.6947 293.251 90.1355 291.326 90.1485Z" fill="#55A630"/>
<path d="M304.156 141.428C282.198 126.627 256.09 121.354 238.979 121.354C222.954 121.354 199.371 123.887 178.026 135.952C164.769 143.447 154.193 153.685 146.588 166.383C137.581 181.424 132.706 200.034 132.099 221.698C132.007 224.948 133.205 228.024 135.473 230.36C137.75 232.708 140.803 234.001 144.071 234.001H186.09C192.018 234.001 197.116 229.567 197.944 223.689C199.808 210.484 207.629 188.251 239.073 187.707C263.027 187.295 272.911 204.673 276.049 212.166C281.155 224.357 279.861 238.815 272.583 250.84C261.402 269.314 240.833 272.143 229.568 272.184C216.613 272.231 206.073 282.771 206.073 295.679V340.99C206.073 347.608 211.444 352.991 218.047 352.991H258.986C265.589 352.991 270.961 347.608 270.961 340.99V331.47C270.961 331.242 271.103 331.044 271.322 330.967C280.596 327.706 298.572 319.827 314.764 303.694C335.434 283.099 345.914 256.518 345.914 224.689C345.915 179.137 323.206 154.269 304.156 141.428Z" fill="#55A630"/>
<path d="M237.488 374.128H240.792C257.05 374.128 270.278 387.384 270.278 403.677C270.278 419.97 257.05 433.226 240.792 433.226H237.488C221.229 433.226 208.002 419.97 208.002 403.677C208.002 387.383 221.229 374.128 237.488 374.128Z" fill="#263238"/>
<path d="M217.891 361.753H258.813C265.413 361.753 270.783 356.54 270.783 350.133V331.607C270.783 331.386 270.925 331.194 271.145 331.12C275.981 329.472 282.749 326.45 290.406 321.734C264.26 321.55 216.602 321.283 205.92 321.673V350.133C205.921 356.54 211.291 361.753 217.891 361.753Z" fill="#263238"/>
<path d="M251.595 156.484L225.334 80.0586C219.789 60.9228 204.054 48.2075 185.12 54.2935L183.403 54.958C166.125 61.6479 156.861 80.5097 162.127 98.3072C167.025 114.866 172.65 133.099 176.078 141.673C183.174 159.423 201.75 154.441 201.75 154.441C201.791 154.427 205.885 166.271 207.676 171.588L217.294 181.113L221.267 176.763L251.595 156.484Z" fill="#FFBF9D"/>
<path d="M201.75 154.441C201.75 154.441 213.222 150.757 222.275 138.603C222.275 138.603 221.87 154.17 203.492 159.44L201.75 154.441Z" fill="#55A630" fill-opacity="0.5"/>
<path d="M174.975 110.376C175.446 111.739 176.987 112.463 178.416 111.996C179.843 111.53 180.621 110.05 180.151 108.686C179.68 107.322 178.139 106.596 176.712 107.062C175.282 107.528 174.505 109.012 174.975 110.376Z" fill="#263238"/>
<path d="M168.655 103.854C169.098 104.063 170.472 101.89 173.211 100.839C175.93 99.7483 178.481 100.382 178.648 99.9309C178.736 99.7259 178.185 99.2506 177.065 98.9514C175.96 98.6504 174.255 98.6 172.554 99.2674C170.854 99.9365 169.663 101.119 169.087 102.082C168.496 103.054 168.442 103.765 168.655 103.854Z" fill="#263238"/>
<path d="M197.841 101.289C198.285 101.499 199.663 99.3251 202.398 98.2738C205.117 97.1843 207.668 97.8171 207.836 97.366C207.923 97.161 207.375 96.6857 206.252 96.3874C205.147 96.0854 203.442 96.0361 201.741 96.7024C200.041 97.3725 198.85 98.5552 198.274 99.5171C197.685 100.489 197.63 101.2 197.841 101.289Z" fill="#263238"/>
<path d="M194.016 118.968C193.968 118.808 192.155 119.171 189.264 119.884C188.538 120.083 187.824 120.2 187.522 119.768C187.163 119.326 187.164 118.458 187.188 117.512C187.191 115.564 187.194 113.522 187.198 111.383C187.141 102.685 186.812 95.6428 186.462 95.6475C186.113 95.654 185.875 102.707 185.932 111.406C185.964 113.545 185.991 115.583 186.021 117.533C186.063 118.43 185.956 119.509 186.717 120.42C187.107 120.87 187.766 121.051 188.26 120.999C188.761 120.962 189.157 120.818 189.51 120.705C192.341 119.782 194.065 119.128 194.016 118.968Z" fill="#263238"/>
<path d="M191.518 85.879C192.16 86.4344 194.53 84.6711 197.734 83.3514C200.911 81.9655 203.824 81.4893 203.874 80.6411C203.884 80.2422 203.096 79.8228 201.74 79.697C200.394 79.5665 198.489 79.7939 196.574 80.6039C194.662 81.4166 193.172 82.6291 192.328 83.6878C191.474 84.7503 191.225 85.6087 191.518 85.879Z" fill="#263238"/>
<path d="M165.421 95.8439C166.224 96.2577 168.223 94.7795 170.905 93.7525C173.556 92.6462 176.033 92.333 176.317 91.483C176.43 91.0804 175.84 90.5865 174.625 90.3618C173.426 90.1344 171.606 90.2603 169.773 90.9919C167.941 91.7263 166.546 92.8876 165.846 93.8746C165.132 94.8709 165.057 95.6314 165.421 95.8439Z" fill="#263238"/>
<path d="M228.68 92.963C228.932 92.7141 239.51 84.6038 243.823 96.9473C248.134 109.291 234.88 111.083 234.734 110.737C234.59 110.39 228.68 92.963 228.68 92.963Z" fill="#FFBF9D"/>
<path d="M236.864 104.741C236.904 104.682 237.131 104.815 237.552 104.855C237.962 104.894 238.61 104.792 239.168 104.325C240.301 103.39 240.674 100.935 239.956 98.6893C239.595 97.5551 238.986 96.5681 238.28 95.8216C237.589 95.0508 236.786 94.6239 236.089 94.7376C235.384 94.8159 235.058 95.3714 235.029 95.7712C234.985 96.1739 235.149 96.3929 235.091 96.4376C235.067 96.4805 234.754 96.323 234.675 95.7787C234.64 95.5149 234.682 95.1738 234.89 94.8355C235.101 94.4907 235.492 94.2157 235.966 94.1048C236.938 93.8373 238.099 94.4133 238.876 95.2316C239.705 96.0369 240.416 97.1376 240.821 98.4116C241.611 100.926 241.154 103.7 239.554 104.841C238.766 105.372 237.952 105.362 237.477 105.202C236.99 105.031 236.829 104.778 236.864 104.741Z" fill="#55A630" fill-opacity="0.5"/>
<path d="M203.313 117.724C202.878 117.842 203.824 120.691 202.066 123.528C200.315 126.371 197.179 127.066 197.29 127.472C197.31 127.664 198.149 127.799 199.44 127.405C200.709 127.028 202.405 126.01 203.481 124.275C204.55 122.536 204.636 120.669 204.344 119.468C204.054 118.242 203.501 117.642 203.313 117.724Z" fill="#263238"/>
<path d="M131.372 89.6386C131.313 88.8436 131.63 88.0588 132.142 87.4484C133.259 86.1156 134.922 85.6534 136.483 85.0736C140.366 83.6318 143.888 81.2627 146.748 78.2617C145.318 78.0734 143.92 77.7248 142.618 77.1013C139.929 75.8152 137.715 73.1729 137.689 70.1877C137.684 69.6276 137.79 69.0013 138.24 68.6677C138.953 68.1392 139.929 68.6788 140.706 69.1066C143.261 70.5121 145.264 70.7954 147.901 69.5531C149.539 68.7814 151.05 67.8186 152.093 66.5138C152.126 66.4392 152.152 66.361 152.187 66.2873C152.594 65.3991 152.997 64.5463 153.398 63.7178C153.398 63.715 153.399 63.7131 153.399 63.7103L153.399 63.715C156.411 57.4771 159.271 52.8824 162.791 49.7807C167.947 45.2344 177.652 40.703 184.497 40.1382C191.343 39.5734 198.76 42.6807 201.893 48.8058C204.361 44.5876 209.645 42.7506 214.531 42.9631L214.622 42.8783C219.987 42.8979 224.469 46.9884 227.588 51.3623C227.759 51.6018 227.92 51.8479 228.087 52.0902C230.599 54.0819 233.56 55.5013 236.708 56.1034C237.263 56.2096 237.907 56.3522 238.149 56.8639C238.39 57.3709 238.1 57.9636 237.778 58.424C236.924 59.6478 235.783 60.6562 234.486 61.3925C235.329 62.3962 236.235 63.3403 237.246 64.1913C238.106 64.9145 239.129 65.7822 238.993 66.8978C238.888 67.7608 238.063 68.3918 237.211 68.5595C236.36 68.7264 235.484 68.5306 234.639 68.3368C235.619 69.4244 236.598 70.513 237.578 71.6007C235.96 72.5103 234.125 73.0024 232.272 73.0844C232.86 77.997 235.066 86.7019 234.981 90.2024C231.734 91.4131 230.815 91.3376 229.359 92.4681C227.478 93.9295 229.619 97.4236 226.469 97.3285C224.864 97.2801 220.811 92.6825 219.831 91.4075C213.333 82.9496 208.69 73.0714 206.306 62.6684C203.591 61.2564 200.602 60.3747 197.556 60.0858L197.837 60.2032C192.188 60.2284 185.889 60.5154 181.947 64.5697C178.889 67.7142 178.066 72.3351 176.377 76.3865C173.177 84.0652 168.329 89.2714 160.623 92.3721C161.832 98.0667 164.754 107.046 166.275 112.222L158.369 103.579L158.381 103.621C157.821 103.149 157.321 102.65 156.83 102.147L156.67 101.998L156.663 101.975C155.88 101.165 155.117 100.345 154.221 99.5877C154.209 99.6082 154.198 99.6278 154.187 99.6483C152.294 103.047 146.94 100.763 148.066 97.0368C148.289 96.2977 148.619 95.5931 149.055 94.9528C148.216 96.5773 146.542 97.8048 144.717 97.8793C142.892 97.9539 141.028 96.7348 140.566 94.964C140.251 93.7552 140.72 92.4104 141.614 91.5725C139.456 92.5269 137.016 92.8447 134.692 92.4215C133.168 92.1429 131.504 91.3898 131.372 89.6386Z" fill="#263238"/>
<path d="M196.953 52.8794C196.934 52.939 197.876 53.09 199.343 53.8971C200.797 54.7024 202.685 56.3315 204.215 58.915C204.984 60.1956 205.705 61.6775 206.288 63.3402C206.879 65.0001 207.372 66.8277 207.905 68.7486C208.444 70.6675 209.006 72.6965 209.852 74.7162C210.274 75.7236 210.766 76.7274 211.356 77.6958C211.944 78.6436 212.606 79.6651 213.692 80.2765C214.563 80.7788 215.707 80.735 216.536 80.2355C217.38 79.7583 218.011 78.995 218.368 78.1329C219.05 76.3686 218.735 74.5465 218.489 72.9304L218.128 73.1094C219.224 74.253 220.332 75.3751 221.649 76.1179C222.953 76.8728 224.483 77.1356 225.825 76.7927C226.494 76.6221 227.111 76.2884 227.568 75.8113C228.038 75.3341 228.285 74.7171 228.392 74.1197C228.483 73.5176 228.428 72.9109 228.212 72.3843C227.993 71.8596 227.605 71.4243 227.139 71.1848L227.008 71.4234C228.955 72.5185 230.721 72.8531 231.901 72.9668C232.496 73.0227 232.955 73.019 233.264 73.0106C233.573 72.9947 233.731 72.978 233.731 72.9659C233.73 72.9519 233.57 72.9444 233.264 72.9351C232.957 72.9202 232.503 72.8988 231.917 72.8214C230.755 72.6648 229.028 72.292 227.144 71.1885L227.013 71.4262C227.845 71.8558 228.278 72.9733 228.076 74.0666C227.971 74.608 227.74 75.1607 227.323 75.5717C226.912 75.9911 226.349 76.2922 225.736 76.4413C224.5 76.7442 223.071 76.4944 221.844 75.7721C220.597 75.0582 219.522 73.965 218.432 72.8167L217.97 72.3293L218.07 72.9966C218.315 74.6118 218.587 76.3705 217.959 77.966C217.641 78.7387 217.059 79.4311 216.32 79.8468C215.584 80.2783 214.659 80.3119 213.904 79.8841C212.958 79.3584 212.31 78.3985 211.733 77.4646C211.156 76.5205 210.672 75.5391 210.254 74.5484C209.418 72.5651 208.849 70.552 208.301 68.6386C207.758 66.7215 207.25 64.891 206.636 63.2153C206.029 61.5377 205.282 60.0409 204.483 58.7501C202.894 56.147 200.931 54.516 199.425 53.7462C197.906 52.9707 196.953 52.8794 196.953 52.8794Z" fill="#455A64"/>
<path d="M147.402 90.1232C147.4 90.1297 147.464 90.1549 147.59 90.1949C147.743 90.2406 147.929 90.2965 148.156 90.3646C148.404 90.4429 148.715 90.5267 149.091 90.5855C149.465 90.6544 149.896 90.7467 150.391 90.7765C152.344 90.9825 155.305 90.8268 158.59 89.4438C161.847 88.083 165.42 85.4958 168.048 81.5814C170.735 77.7173 172.55 72.7815 173.594 67.4952C174.136 64.8464 174.415 62.2284 174.865 59.7437C175.307 57.2599 175.926 54.8899 176.959 52.8264C177.971 50.7611 179.371 49.0052 181.04 47.8365C181.865 47.2363 182.772 46.8458 183.666 46.554C184.571 46.2875 185.477 46.1701 186.342 46.1514C188.078 46.1253 189.633 46.5429 190.894 47.0918C192.161 47.6473 193.132 48.364 193.856 49.0164C195.258 50.3864 195.679 51.4359 195.737 51.3949C195.745 51.3911 195.717 51.3296 195.656 51.2103C195.58 51.0687 195.489 50.8972 195.376 50.6875C195.119 50.2354 194.664 49.6082 193.976 48.8906C193.259 48.2065 192.282 47.4534 190.995 46.8625C189.715 46.2791 188.127 45.828 186.338 45.8345C185.446 45.8439 184.509 45.9548 183.567 46.2223C182.638 46.514 181.684 46.9175 180.827 47.5317C179.088 48.7293 177.635 50.5346 176.59 52.6419C175.521 54.7501 174.885 57.1639 174.435 59.6654C173.976 62.1706 173.694 64.783 173.156 67.4075C172.12 72.6547 170.335 77.5309 167.708 81.3475C165.138 85.2153 161.659 87.7717 158.467 89.153C155.25 90.551 152.341 90.7532 150.405 90.6032C148.453 90.4457 147.416 90.0598 147.402 90.1232Z" fill="#455A64"/>
<path d="M142.973 82.769C142.967 82.7997 143.253 82.8771 143.777 82.9917C144.3 83.1157 145.074 83.2238 146.032 83.29C146.992 83.3636 148.144 83.3431 149.412 83.2173C150.678 83.0691 152.06 82.8025 153.466 82.3645C154.868 81.9106 156.151 81.3309 157.271 80.7223C158.381 80.0923 159.333 79.4464 160.076 78.8322C160.822 78.2246 161.392 77.6905 161.749 77.287C162.112 76.8899 162.301 76.6625 162.279 76.6411C162.218 76.5814 161.403 77.4463 159.883 78.5815C159.127 79.1556 158.174 79.7624 157.074 80.3598C155.965 80.9367 154.704 81.4931 153.329 81.9376C151.951 82.3664 150.601 82.6394 149.362 82.8081C148.12 82.9535 146.991 83.0067 146.045 82.974C144.15 82.9228 142.988 82.686 142.973 82.769Z" fill="#455A64"/>
<path d="M176.702 211.961C176.541 212.007 178.649 222.587 180.714 233.562H181.367C179.302 222.587 176.864 211.914 176.702 211.961Z" fill="#263238"/>
<path d="M185.613 234.092C191.582 234.092 197.076 229.783 197.91 223.913C199.786 210.727 207.294 188.408 238.946 187.866C263.058 187.454 273.206 204.558 276.049 212.165C280.562 224.241 280.002 238.9 272.677 250.906C261.422 269.354 240.717 272.178 229.378 272.219C216.337 272.267 205.728 282.791 205.728 295.68V344.948L271.046 343.717V331.419C271.046 331.191 271.189 330.994 271.41 330.917C279.366 328.141 291.981 322.88 306.175 311.41L301.923 254.67C301.923 254.67 314.353 230.728 313.737 225.341C308.109 176.128 291.408 148.282 284.62 145.685C276.999 142.769 247.573 144.189 247.573 144.189C247.573 144.189 234.865 167.786 217.036 170.4C207.116 171.855 203.493 159.44 203.493 159.44L180.449 172.979C164.048 181.269 160.866 213.524 160.564 234.092H185.613Z" fill="#455A64"/>
<g opacity="0.3">
<path d="M261.307 263.081C274.473 266.44 287.453 270.689 300.619 274.048C301.595 274.297 302.636 274.585 303.295 275.349C304.265 276.474 304.047 278.181 303.613 279.603C302.228 284.139 299.241 288.059 295.685 291.189C292.821 293.711 289.389 295.839 285.587 296.136C281.354 296.467 277.284 294.5 273.705 292.211C264.552 286.357 256.741 277.803 251.832 268.097C251.832 268.097 254.919 266.824 257.281 265.558C259.475 264.383 261.307 263.081 261.307 263.081Z" fill="black"/>
</g>
<path d="M275.78 212.507C281.044 224.681 279.709 239.117 272.207 251.124C268.044 257.789 262.743 262.546 256.961 265.737C263.188 272.526 269.509 278.506 275.758 282.951C282.483 287.733 297.982 286.373 303.859 275.904C311.109 262.987 311.716 229.987 311.716 229.987C313.093 210.092 313.093 210.092 313.093 210.092L272.548 203.868L272.222 204.982C273.961 207.595 274.986 210.673 275.78 212.507Z" fill="#FFBF9D"/>
<path d="M205.178 204.147L202.869 207.794C201.114 209.008 199.444 208.341 198.36 206.087L173.4 168.014L179.481 164.139L207.048 200.649C207.048 200.649 207.437 202.585 205.178 204.147Z" fill="#455A64"/>
<path d="M147.513 167.361C142.627 164.598 138.528 160.336 135.992 154.858C132.869 148.112 132.553 140.55 135.105 133.566C137.657 126.581 142.769 121.011 149.503 117.88C163.399 111.418 179.953 117.491 186.402 131.418C189.526 138.165 189.84 145.727 187.289 152.712C184.737 159.696 179.625 165.266 172.893 168.397C164.461 172.317 155.05 171.624 147.513 167.361ZM173.965 120.538C166.933 116.561 158.153 115.914 150.286 119.572C144.004 122.493 139.233 127.69 136.853 134.207C134.472 140.724 134.766 147.78 137.68 154.074C140.595 160.37 145.781 165.15 152.284 167.536C158.787 169.922 165.827 169.628 172.109 166.707C178.39 163.786 183.161 158.588 185.541 152.072C187.923 145.555 187.628 138.5 184.713 132.204C182.348 127.094 178.523 123.116 173.965 120.538Z" fill="#263238"/>
<path d="M148.697 166.193C143.811 163.43 139.712 159.168 137.176 153.69C134.052 146.944 133.737 139.382 136.289 132.398C138.841 125.413 143.953 119.843 150.686 116.712C164.583 110.25 181.136 116.323 187.586 130.251C190.71 136.998 191.024 144.56 188.473 151.545C185.922 158.529 180.809 164.1 174.077 167.23C165.643 171.149 156.233 170.456 148.697 166.193ZM175.148 119.369C168.115 115.392 159.336 114.745 151.468 118.403C145.187 121.324 140.416 126.522 138.035 133.038C135.655 139.555 135.948 146.611 138.863 152.906C141.778 159.201 146.963 163.981 153.467 166.367C159.969 168.753 167.009 168.459 173.292 165.538C179.573 162.617 184.344 157.419 186.724 150.903C189.104 144.386 188.811 137.33 185.896 131.035C183.531 125.925 179.707 121.947 175.148 119.369Z" fill="#455A64"/>
<path d="M185.49 142.361C185.48 142.361 185.471 142.203 185.462 141.903C185.439 141.604 185.475 141.162 185.409 140.598C185.345 139.465 185.092 137.831 184.488 135.898C184.191 134.93 183.77 133.902 183.271 132.821C182.732 131.761 182.139 130.632 181.371 129.534C180.623 128.427 179.762 127.31 178.762 126.253C177.769 125.193 176.668 124.154 175.427 123.239C174.192 122.317 172.893 121.549 171.58 120.925C170.261 120.314 168.931 119.861 167.643 119.513C165.052 118.86 162.625 118.68 160.608 118.798C158.589 118.91 156.972 119.229 155.881 119.533C155.328 119.658 154.918 119.823 154.628 119.899C154.342 119.985 154.189 120.026 154.186 120.015C154.182 120.006 154.327 119.946 154.608 119.842C154.891 119.748 155.298 119.564 155.849 119.422C156.936 119.081 158.559 118.728 160.596 118.588C162.631 118.441 165.085 118.6 167.711 119.246C169.016 119.591 170.366 120.045 171.704 120.66C173.035 121.289 174.355 122.067 175.606 123.001C176.863 123.927 177.975 124.979 178.976 126.055C179.985 127.126 180.85 128.257 181.6 129.381C182.369 130.494 182.961 131.639 183.496 132.715C183.989 133.811 184.403 134.854 184.691 135.836C185.275 137.796 185.498 139.45 185.526 140.591C185.575 141.161 185.52 141.605 185.523 141.905C185.511 142.204 185.501 142.361 185.49 142.361Z" fill="white"/>
<path d="M156.496 165.027C156.516 164.958 157.784 165.432 159.924 165.724C160.193 165.757 160.474 165.79 160.765 165.826C161.057 165.858 161.365 165.859 161.681 165.879C162.313 165.93 162.991 165.897 163.703 165.883C165.125 165.798 166.681 165.582 168.272 165.163C169.858 164.723 171.312 164.126 172.584 163.484C173.206 163.137 173.809 162.825 174.331 162.462C174.594 162.286 174.86 162.131 175.096 161.955C175.331 161.778 175.556 161.608 175.772 161.445C177.475 160.114 178.335 159.066 178.387 159.115C178.402 159.128 178.187 159.386 177.781 159.841C177.582 160.074 177.33 160.348 177.006 160.636C176.687 160.928 176.341 161.284 175.903 161.61C175.689 161.781 175.464 161.958 175.232 162.143C174.997 162.325 174.732 162.487 174.468 162.67C173.946 163.047 173.34 163.371 172.713 163.729C171.431 164.393 169.959 165.008 168.351 165.453C166.737 165.878 165.157 166.088 163.717 166.159C162.995 166.165 162.309 166.189 161.669 166.127C161.349 166.102 161.039 166.095 160.744 166.056C160.45 166.014 160.167 165.973 159.896 165.934C159.354 165.873 158.877 165.739 158.454 165.647C158.03 165.56 157.674 165.45 157.385 165.35C156.805 165.16 156.49 165.047 156.496 165.027Z" fill="white"/>
<path d="M175.614 147.193C175.555 147.251 171.933 143.617 167.525 139.079C163.116 134.54 159.591 130.814 159.649 130.757C159.708 130.699 163.329 134.332 167.738 138.871C172.146 143.409 175.672 147.136 175.614 147.193Z" fill="white"/>
<path d="M171.339 154.487C171.331 154.494 171.24 154.405 171.075 154.229C170.891 154.028 170.654 153.77 170.362 153.451C169.726 152.74 168.847 151.761 167.772 150.562C165.589 148.121 162.563 144.759 159.18 141.081C155.796 137.402 152.696 134.107 150.446 131.728C149.341 130.557 148.438 129.6 147.784 128.906C147.49 128.589 147.253 128.331 147.068 128.132C146.907 127.952 146.825 127.855 146.832 127.848C146.84 127.84 146.936 127.924 147.111 128.09C147.306 128.28 147.556 128.524 147.867 128.825C148.52 129.468 149.452 130.41 150.597 131.581C152.887 133.924 156.013 137.198 159.399 140.879C162.783 144.558 165.786 147.945 167.93 150.423C169.003 151.662 169.863 152.671 170.45 153.375C170.725 153.71 170.947 153.98 171.12 154.19C171.271 154.378 171.346 154.48 171.339 154.487Z" fill="white"/>
<g opacity="0.3">
<path d="M148.682 120.384L182.798 157.523C182.798 157.523 180.036 161.393 177.507 163.077L142.672 125.071C142.672 125.071 145.183 122.039 148.682 120.384Z" fill="white"/>
</g>
<g opacity="0.3">
<path d="M139.739 129.353L173.292 165.537C173.292 165.537 173.604 165.708 171.292 166.293L138.791 131.19C138.791 131.19 138.961 130.31 139.739 129.353Z" fill="white"/>
</g>
<path d="M228.064 189.053C220.897 183.286 203.334 169.18 202.531 168.804C201.521 168.331 186.064 162.827 183.103 164.595C180.142 166.363 172.203 176.35 172.203 176.35C172.203 176.35 172.957 182.561 179.881 178.116C185.165 174.725 185.984 174.199 186.077 174.139C186.071 174.143 186.067 174.146 186.067 174.146L193.428 175.869C193.428 175.869 184.449 179.627 182.55 181.603C180.651 183.578 177.648 191.143 179.521 192.885C181.394 194.627 183.57 194.776 183.57 194.776C183.57 194.776 179.864 200.052 186.438 203.236C186.438 203.236 187.397 207.671 190.64 209.409C193.883 211.146 199.926 210.532 199.926 210.532C199.926 210.532 202.728 208.871 200.646 206.118C198.565 203.365 194.725 202.984 194.725 202.984L199.484 200.202C199.484 200.202 201.959 200.961 205.627 203.801C205.627 203.801 209.972 198.227 214.311 195.076C219.18 191.54 228.064 189.053 228.064 189.053Z" fill="#FFBF9D"/>
<path d="M197.598 191.396C197.595 191.375 197.343 191.379 196.891 191.438C196.439 191.496 195.79 191.625 195.011 191.875C193.461 192.362 191.381 193.439 189.676 195.296C187.971 197.155 187.074 199.322 186.72 200.911C186.537 201.71 186.462 202.368 186.443 202.825C186.422 203.281 186.439 203.533 186.461 203.534C186.528 203.54 186.541 202.526 186.961 200.972C187.37 199.428 188.28 197.34 189.935 195.535C191.591 193.731 193.591 192.648 195.092 192.11C196.602 191.561 197.609 191.462 197.598 191.396Z" fill="#55A630" fill-opacity="0.5"/>
<path d="M197.916 183.369C197.913 183.345 197.645 183.365 197.16 183.422C196.918 183.447 196.622 183.487 196.284 183.566C195.946 183.64 195.555 183.704 195.139 183.839C194.294 184.062 193.315 184.429 192.269 184.922C191.233 185.435 190.134 186.088 189.07 186.898C188.016 187.722 187.105 188.62 186.345 189.493C185.601 190.381 184.999 191.236 184.567 191.997C184.332 192.366 184.169 192.729 184.011 193.037C183.849 193.345 183.735 193.621 183.648 193.849C183.469 194.304 183.381 194.558 183.404 194.567C183.468 194.595 183.861 193.588 184.778 192.126C185.23 191.392 185.845 190.566 186.588 189.706C187.348 188.859 188.248 187.986 189.283 187.177C190.328 186.381 191.528 185.485 192.539 184.964C193.559 184.464 194.383 184.327 195.207 184.076C196.855 183.563 197.927 183.438 197.916 183.369Z" fill="#55A630" fill-opacity="0.5"/>
<path d="M199.259 174.149C199.268 174.111 198.897 173.967 198.259 173.924C197.625 173.878 196.724 173.978 195.82 174.361C194.597 174.885 194.166 175.395 193.812 175.818C193.4 176.307 193.246 176.675 193.28 176.695C193.362 176.768 194.216 175.405 195.958 174.685C197.683 173.929 199.254 174.259 199.259 174.149Z" fill="#55A630" fill-opacity="0.5"/>
<path d="M281.76 144.941C281.76 144.941 304.442 147.122 311.643 166.871C317.358 182.547 320.463 229.507 319.031 230.465L278.983 229.181C278.456 217.73 275.38 208.901 271.066 203.188L281.76 144.941Z" fill="#455A64"/>
<path d="M279.597 229.181C279.616 229.153 279.895 229.311 280.383 229.62C280.873 229.927 281.562 230.401 282.393 231.016C284.058 232.24 286.262 234.073 288.488 236.314C290.717 238.554 292.542 240.761 293.793 242.404C294.417 243.228 294.908 243.905 295.227 244.387C295.548 244.867 295.714 245.142 295.687 245.161C295.627 245.205 294.838 244.202 293.526 242.617C292.211 241.035 290.356 238.879 288.145 236.656C285.936 234.431 283.787 232.574 282.184 231.286C280.584 229.997 279.554 229.244 279.597 229.181Z" fill="#55A630" fill-opacity="0.5"/>
<path d="M274.827 180.876C274.959 180.898 274.224 185.911 273.186 192.072C272.147 198.234 271.198 203.21 271.066 203.188C270.934 203.165 271.669 198.153 272.708 191.991C273.746 185.83 274.695 180.853 274.827 180.876Z" fill="#263238"/>
<path d="M224.426 321.704C224.425 321.687 224.654 321.653 225.091 321.603C225.576 321.554 226.212 321.49 227.006 321.409C228.723 321.246 231.116 321.02 234.049 320.741C239.996 320.169 248.203 319.31 257.244 318.166C266.287 317.018 274.45 315.802 280.351 314.872C283.261 314.41 285.635 314.033 287.338 313.761C288.126 313.641 288.759 313.545 289.24 313.472C289.676 313.411 289.906 313.387 289.909 313.403C289.912 313.419 289.688 313.475 289.257 313.568C288.779 313.664 288.152 313.79 287.37 313.948C285.73 314.27 283.351 314.704 280.405 315.212C274.516 316.228 266.354 317.5 257.303 318.649C248.255 319.794 240.035 320.6 234.078 321.084C231.099 321.327 228.688 321.502 227.019 321.599C226.223 321.642 225.584 321.675 225.096 321.701C224.658 321.719 224.427 321.721 224.426 321.704Z" fill="#263238"/>
<path d="M220.887 315.704C220.886 315.671 221.474 315.619 222.537 315.554C223.68 315.494 225.201 315.413 227.043 315.314C230.921 315.114 236.14 314.847 241.906 314.55C247.672 314.216 252.888 313.913 256.765 313.687C258.608 313.584 260.127 313.498 261.27 313.434C262.334 313.382 262.925 313.369 262.926 313.402C262.929 313.436 262.344 313.512 261.284 313.622C260.224 313.733 258.688 313.873 256.789 314.029C252.991 314.344 247.74 314.716 241.932 315.035C236.126 315.352 230.866 315.555 227.056 315.657C225.152 315.708 223.61 315.737 222.544 315.743C221.477 315.75 220.888 315.738 220.887 315.704Z" fill="#263238"/>
<path d="M157.101 230.729C157.248 230.157 157.488 229.62 157.826 229.135C158.495 228.172 159.51 227.439 160.658 227.176C162.567 226.74 164.705 227.635 165.737 229.303C165.668 228.031 166.67 226.847 167.896 226.511C169.12 226.176 170.072 226.649 171.049 227.462C172.027 228.275 172.277 228.921 172.674 230.131C173.65 227.935 178.666 228.204 179.276 229.852C179.276 229.852 183.592 225.117 185.8 227.445C186.717 228.413 186.324 229.896 185.716 231.383C184.905 233.367 184.372 234.194 183.311 236.379L179.226 236.603C178.882 237.885 178.157 243.095 178.004 244.413C177.85 245.731 177.587 247.073 176.888 248.2C176.188 249.327 174.973 250.208 173.649 250.191C172.324 250.172 171.02 249.035 171.099 247.71C170.82 248.805 170.355 249.885 169.55 250.675C168.745 251.466 167.552 251.921 166.462 251.636C165.371 251.351 164.506 250.207 164.727 249.1C163.271 250.111 161.118 249.213 160.193 247.698C159.268 246.184 159.246 244.301 159.302 242.526C159.353 240.953 159.495 239.187 158.876 237.698C158.779 237.463 158.611 237.26 158.555 237.01C158.471 236.64 158.527 236.221 158.501 235.842C158.443 235.017 158.292 234.195 158.009 233.417C157.946 233.246 157.879 233.077 157.803 232.911C157.605 232.471 157.312 232.098 157.088 231.676C157.039 231.584 156.997 231.493 156.985 231.388C156.96 231.171 157.048 230.932 157.101 230.729Z" fill="#FFBF9D"/>
<path d="M152.506 228.454C151.414 228.415 150.224 228.642 149.495 229.457C148.631 230.425 148.432 232.74 148.531 234.034C150.045 234.32 150.853 233.983 152.367 234.269C152.686 234.33 152.953 234.249 153.217 234.437C153.916 234.934 153.802 236.608 154.083 237.418C154.57 238.825 156.368 239.512 157.761 238.994C159.154 238.477 160.051 236.992 160.121 235.505C160.192 234.018 159.539 232.564 158.583 231.425C157.09 229.645 154.825 228.538 152.506 228.454Z" fill="#FFBF9D"/>
<path d="M178.29 242.24C178.135 242.207 178.758 239.43 179.153 235.975C179.342 234.247 179.386 232.675 179.318 231.541C179.26 230.408 179.127 229.711 179.202 229.693C179.257 229.677 179.511 230.357 179.66 231.511C179.818 232.662 179.827 234.274 179.634 236.027C179.447 237.781 179.119 239.341 178.85 240.459C178.574 241.576 178.353 242.254 178.29 242.24Z" fill="#55A630" fill-opacity="0.5"/>
<path d="M170.915 248.205C170.847 248.19 171.022 247.18 171.32 245.558C171.614 243.934 172.03 241.694 172.344 239.203C172.659 236.712 172.771 234.442 172.738 232.8C172.714 231.157 172.595 230.142 172.673 230.13C172.727 230.121 172.967 231.125 173.08 232.786C173.202 234.445 173.143 236.75 172.825 239.264C172.508 241.777 172.037 244.019 171.655 245.629C171.27 247.238 170.978 248.22 170.915 248.205Z" fill="#55A630" fill-opacity="0.5"/>
<path d="M164.678 249.27C164.606 249.25 164.863 248.136 165.189 246.324C165.516 244.512 165.877 241.992 166.031 239.189C166.181 236.386 166.097 233.841 165.968 232.004C165.841 230.166 165.706 229.031 165.78 229.02C165.814 229.015 165.885 229.293 165.985 229.802C166.089 230.31 166.202 231.052 166.31 231.974C166.527 233.815 166.668 236.385 166.516 239.216C166.36 242.047 165.941 244.585 165.526 246.392C165.319 247.296 165.126 248.021 164.968 248.515C164.811 249.01 164.71 249.278 164.678 249.27Z" fill="#55A630" fill-opacity="0.5"/>
<path d="M156.453 231.019C156.475 230.97 157.013 231.127 157.727 231.664C158.438 232.193 159.293 233.148 159.796 234.431C160.297 235.712 160.336 237.01 160.07 237.886C159.799 238.787 159.235 239.1 159.216 239.043C159.161 238.989 159.583 238.622 159.738 237.802C159.896 236.998 159.811 235.797 159.345 234.609C158.878 233.416 158.127 232.497 157.508 231.928C156.887 231.352 156.416 231.089 156.453 231.019Z" fill="#55A630" fill-opacity="0.5"/>
</svg>
